# 3V 5/9 Kruschke-style geodesic dome visualization
# dome_radius_m 3.5
# dome_height_m 4.156574
# sphere_centre_above_base_m 0.656574
# strut_thickness_in 1.0
# hubs 61
# struts 165
# triangles 105
# strut_counts A=30@1.2202m B=55@1.4124m C=80@1.4434m
# pentagonal_hubs 6
# material solid_gray 0.55 0.55 0.55
o V3_5_9_Kruschke_Dome
v 2.965489 2.209363 0.962047
v 2.986215 2.209363 0.976731
v 2.989066 2.234279 0.972705
v 2.968341 2.234279 0.958022
v 2.273553 2.446328 1.938698
v 2.294278 2.446328 1.953382
v 2.29713 2.471245 1.949357
v 2.276405 2.471245 1.934673
v 2.971506 2.214249 0.952147
v 2.963657 2.214249 0.976304
v 2.98305 2.229394 0.982605
v 2.990899 2.229394 0.958448
v 2.27957 3.193766 0.727324
v 2.271721 3.193766 0.75148
v 2.291113 3.208912 0.757781
v 2.298962 3.208912 0.733625
v 2.964388 2.214043 0.957581
v 2.989784 2.214043 0.957096
v 2.990167 2.2296 0.977171
v 2.964772 2.2296 0.977656
v 2.978661 1.249533 1.704772
v 3.004057 1.249533 1.704286
v 3.00444 1.26509 1.724361
v 2.979045 1.26509 1.724846
v 2.981353 2.214043 0.983044
v 2.961093 2.214043 0.967724
v 2.973203 2.2296 0.951709
v 2.993463 2.2296 0.967028
v 3.432087 1.249533 0.386944
v 3.411827 1.249533 0.371624
v 3.423937 1.26509 0.355609
v 3.444197 1.26509 0.370928
v 2.990006 2.209363 0.965061
v 2.964608 2.209363 0.964758
v 2.964549 2.234279 0.969691
v 2.989948 2.234279 0.969994
v 3.004279 2.446328 -0.231776
v 2.978881 2.446328 -0.232079
v 2.978822 2.471245 -0.227146
v 3.004221 2.471245 -0.226844
v 2.277877 2.446086 1.933753
v 2.292806 2.446086 1.954302
v 2.292806 2.471486 1.954302
v 2.277877 2.471486 1.933753
v 1.135206 2.446086 2.763952
v 1.150136 2.446086 2.784501
v 1.150136 2.471486 2.784501
v 1.135206 2.471486 2.763952
v 2.298042 2.447983 1.937351
v 2.272642 2.447983 1.937351
v 2.272642 2.46959 1.950704
v 2.298042 2.46959 1.950704
v 2.298042 3.190536 0.735876
v 2.272642 3.190536 0.735876
v 2.272642 3.212142 0.749229
v 2.298042 3.212142 0.749229
v 2.279619 2.449455 1.929789
v 2.274228 2.449455 1.95461
v 2.291064 2.468118 1.958267
v 2.296455 2.468118 1.933445
v 1.243155 3.428532 1.704693
v 1.237764 3.428532 1.729515
v 1.2546 3.447196 1.733171
v 1.259991 3.447196 1.70835
v 2.278992 2.45211 1.959444
v 2.271143 2.45211 1.935288
v 2.291692 2.465463 1.928611
v 2.299541 2.465463 1.952768
v 2.985201 1.250634 1.729983
v 2.977352 1.250634 1.705826
v 2.997901 1.263988 1.699149
v 3.00575 1.263988 1.723306
v 2.27627 2.451061 1.930589
v 2.300489 2.451061 1.938244
v 2.294414 2.466512 1.957466
v 2.270194 2.466512 1.949812
v 2.011654 1.305422 2.767852
v 2.035873 1.305422 2.775507
v 2.029798 1.320873 2.794729
v 2.005579 1.320873 2.787075
v 1.141245 2.446328 2.761368
v 1.148806 2.446328 2.785617
v 1.144096 2.471245 2.787085
v 1.136536 2.471245 2.762836
v -0.001426 2.209363 3.117637
v 0.006135 2.209363 3.141885
v 0.001426 2.234279 3.143354
v -0.006135 2.234279 3.119105
v 1.15617 2.449455 2.766927
v 1.130897 2.449455 2.764384
v 1.129172 2.468118 2.781526
v 1.154444 2.468118 2.784069
v 1.262376 3.428532 1.711633
v 1.237104 3.428532 1.709089
v 1.235379 3.447196 1.726231
v 1.260651 3.447196 1.728775
v 1.140245 2.447983 2.760085
v 1.132396 2.447983 2.784242
v 1.145096 2.46959 2.788368
v 1.152945 2.46959 2.764211
v -0.002425 3.190536 2.388809
v -0.010275 3.190536 2.412965
v 0.002425 3.212142 2.417092
v 0.010275 3.212142 2.392935
v 1.132489 2.451061 2.786845
v 1.132693 2.451061 2.761446
v 1.152852 2.466512 2.761608
v 1.152648 2.466512 2.787007
v 2.010544 1.305422 2.793909
v 2.010749 1.305422 2.76851
v 2.030908 1.320873 2.768672
v 2.030703 1.320873 2.794071
v 1.138746 2.45211 2.758022
v 1.159295 2.45211 2.772951
v 1.146595 2.465463 2.790431
v 1.126046 2.465463 2.775502
v 0.702285 1.250634 3.358759
v 0.722834 1.250634 3.373689
v 0.710134 1.263988 3.391169
v 0.689585 1.263988 3.376239
v 0.0127 2.214249 3.1203
v -0.0127 2.214249 3.1203
v -0.0127 2.229394 3.14069
v 0.0127 2.229394 3.14069
v 0.0127 3.193766 2.392755
v -0.0127 3.193766 2.392755
v -0.0127 3.208912 2.413146
v 0.0127 3.208912 2.413146
v -0.013641 2.214043 3.139212
v -0.005332 2.214043 3.11521
v 0.013641 2.2296 3.121778
v 0.005332 2.2296 3.14578
v 0.692568 1.249533 3.383681
v 0.700877 1.249533 3.359679
v 0.719851 1.26509 3.366247
v 0.711542 1.26509 3.390249
v 0.001426 2.209363 3.117637
v -0.006135 2.209363 3.141885
v -0.001426 2.234279 3.143354
v 0.006135 2.234279 3.119105
v -1.141245 2.446328 2.761368
v -1.148806 2.446328 2.785617
v -1.144096 2.471245 2.787085
v -1.136536 2.471245 2.762836
v 0.005332 2.214043 3.11521
v 0.013641 2.214043 3.139212
v -0.005332 2.2296 3.14578
v -0.013641 2.2296 3.121778
v -0.700877 1.249533 3.359679
v -0.692568 1.249533 3.383681
v -0.711542 1.26509 3.390249
v -0.719851 1.26509 3.366247
v 2.275118 3.188811 0.734735
v 2.292535 3.188811 0.753224
v 2.295565 3.213867 0.75037
v 2.278148 3.213867 0.731881
v 1.238654 3.425336 1.711115
v 1.256071 3.425336 1.729603
v 1.2591 3.450393 1.726749
v 1.241684 3.450393 1.708261
v 2.282916 3.190536 0.728411
v 2.275067 3.190536 0.752568
v 2.287767 3.212142 0.756694
v 2.295616 3.212142 0.732537
v 1.140245 3.933088 0.357135
v 1.132396 3.933088 0.381291
v 1.145096 3.954695 0.385418
v 1.152945 3.954695 0.361261
v 2.291692 3.190536 0.755419
v 2.271143 3.190536 0.740489
v 2.278992 3.212142 0.729686
v 2.299541 3.212142 0.744616
v 2.997901 2.447983 -0.216595
v 2.977352 2.447983 -0.231525
v 2.985201 2.46959 -0.242328
v 3.00575 2.46959 -0.227398
v 2.297434 3.188811 0.738148
v 2.272476 3.188811 0.742868
v 2.273249 3.213867 0.746957
v 2.298207 3.213867 0.742237
v 2.032818 3.425336 -0.660979
v 2.00786 3.425336 -0.656258
v 2.008634 3.450393 -0.652169
v 2.033591 3.450393 -0.656889
v 1.244602 3.425336 1.706794
v 1.256803 3.425336 1.729071
v 1.253153 3.450393 1.731071
v 1.240951 3.450393 1.708793
v -0.004276 3.188811 2.390812
v 0.007926 3.188811 2.413089
v 0.004276 3.213867 2.415089
v -0.007926 3.213867 2.392811
v 1.261188 3.42597 1.713496
v 1.235867 3.42597 1.715491
v 1.236566 3.449758 1.724368
v 1.261888 3.449758 1.722373
v 1.154982 3.931997 0.36584
v 1.12966 3.931997 0.367836
v 1.13036 3.955785 0.376712
v 1.155681 3.955785 0.374717
v 1.249625 3.42597 1.705495
v 1.239903 3.42597 1.728961
v 1.248129 3.449758 1.732369
v 1.257852 3.449758 1.708904
v 0.000748 3.931997 1.188038
v -0.008974 3.931997 1.211504
v -0.000748 3.955785 1.214912
v 0.008974 3.955785 1.191447
v 0.0127 3.190536 2.396274
v -0.0127 3.190536 2.396274
v -0.0127 3.212142 2.409627
v 0.0127 3.212142 2.409627
v 0.0127 3.933088 1.194798
v -0.0127 3.933088 1.194798
v -0.0127 3.954695 1.208152
v 0.0127 3.954695 1.208152
v 0.002425 3.190536 2.388809
v 0.010275 3.190536 2.412965
v -0.002425 3.212142 2.417092
v -0.010275 3.212142 2.392935
v -1.140245 2.447983 2.760085
v -1.132396 2.447983 2.784242
v -1.145096 2.46959 2.788368
v -1.152945 2.46959 2.764211
v 0.004276 3.188811 2.390812
v -0.007926 3.188811 2.413089
v -0.004276 3.213867 2.415089
v 0.007926 3.213867 2.392811
v -1.244602 3.425336 1.706794
v -1.256803 3.425336 1.729071
v -1.253153 3.450393 1.731071
v -1.240951 3.450393 1.708793
v 1.135206 3.931191 0.361002
v 1.150136 3.931191 0.381551
v 1.150136 3.956591 0.381551
v 1.135206 3.956591 0.361002
v -0.007465 3.931191 1.191201
v 0.007465 3.931191 1.21175
v 0.007465 3.956591 1.21175
v -0.007465 3.956591 1.191201
v 1.14449 3.931386 0.358514
v 1.136641 3.931386 0.382671
v 1.140852 3.956397 0.384039
v 1.148701 3.956397 0.359882
v 0.001819 4.144068 -0.012762
v -0.00603 4.144068 0.011394
v -0.001819 4.169079 0.012762
v 0.00603 4.169079 -0.011394
v 1.149435 3.931997 0.38291
v 1.130123 3.931997 0.366412
v 1.135906 3.955785 0.359642
v 1.155219 3.955785 0.37614
v 2.02749 3.42597 -0.644939
v 2.008178 3.42597 -0.661437
v 2.013962 3.449758 -0.668208
v 2.033274 3.449758 -0.65171
v 1.154749 3.931191 0.367352
v 1.130592 3.931191 0.375201
v 1.130592 3.956591 0.375201
v 1.154749 3.956591 0.367352
v 0.718288 3.931191 -0.975938
v 0.694131 3.931191 -0.968089
v 0.694131 3.956591 -0.968089
v 0.718288 3.956591 -0.975938
v 0.0127 3.931386 1.199261
v -0.0127 3.931386 1.199261
v -0.0127 3.956397 1.203689
v 0.0127 3.956397 1.203689
v 0.0127 4.144068 -0.002214
v -0.0127 4.144068 -0.002214
v -0.0127 4.169079 0.002214
v 0.0127 4.169079 0.002214
v 0.007465 3.931191 1.191201
v -0.007465 3.931191 1.21175
v -0.007465 3.956591 1.21175
v 0.007465 3.956591 1.191201
v -1.135206 3.931191 0.361002
v -1.150136 3.931191 0.381551
v -1.150136 3.956591 0.381551
v -1.135206 3.956591 0.361002
v -0.000748 3.931997 1.188038
v 0.008974 3.931997 1.211504
v 0.000748 3.955785 1.214912
v -0.008974 3.955785 1.191447
v -1.249625 3.42597 1.705495
v -1.239903 3.42597 1.728961
v -1.248129 3.449758 1.732369
v -1.257852 3.449758 1.708904
v 0.008973 4.144068 0.009256
v -0.011576 4.144068 -0.005674
v -0.008973 4.169079 -0.009256
v 0.011576 4.169079 0.005674
v 0.715183 3.931386 -0.962758
v 0.694634 3.931386 -0.977688
v 0.697236 3.956397 -0.98127
v 0.717785 3.956397 -0.96634
v 0.011576 4.144068 -0.005674
v -0.008973 4.144068 0.009256
v -0.011576 4.169079 0.005674
v 0.008973 4.169079 -0.009256
v -0.694634 3.931386 -0.977688
v -0.715183 3.931386 -0.962758
v -0.717785 3.956397 -0.96634
v -0.697236 3.956397 -0.98127
v -0.001819 4.144068 -0.012762
v 0.00603 4.144068 0.011394
v 0.001819 4.169079 0.012762
v -0.00603 4.169079 -0.011394
v -1.14449 3.931386 0.358514
v -1.136641 3.931386 0.382671
v -1.140852 3.956397 0.384039
v -1.148701 3.956397 0.359882
v 2.987626 1.250634 1.698361
v 3.008175 1.250634 1.713291
v 2.995475 1.263988 1.730771
v 2.974926 1.263988 1.715841
v 2.551165 0.049159 2.299099
v 2.571714 0.049159 2.314029
v 2.559014 0.062513 2.331509
v 2.538465 0.062513 2.316579
v 2.981828 1.244621 1.706381
v 3.000613 1.244621 1.723478
v 3.001274 1.270002 1.722751
v 2.982489 1.270002 1.705655
v 2.011003 1.300457 2.773106
v 2.029788 1.300457 2.790202
v 2.030449 1.325838 2.789475
v 2.011664 1.325838 2.772379
v 3.003629 1.244611 1.718491
v 2.979472 1.244611 1.710642
v 2.979472 1.270011 1.710642
v 3.003629 1.270011 1.718491
v 3.440091 1.244611 0.375201
v 3.415934 1.244611 0.367352
v 3.415934 1.270011 0.367352
v 3.440091 1.270011 0.375201
v 2.998895 1.251073 1.729723
v 2.97553 1.251073 1.719762
v 2.984207 1.263549 1.69941
v 3.007572 1.263549 1.709371
v 3.276948 -0.006238 1.077515
v 3.253582 -0.006238 1.067554
v 3.262259 0.006238 1.047202
v 3.285624 0.006238 1.057163
v 2.538405 0.049598 2.313003
v 2.555099 0.049598 2.332146
v 2.571774 0.062074 2.317605
v 2.55508 0.062074 2.298461
v 2.004041 1.306909 2.77899
v 2.020735 1.306909 2.798133
v 2.03741 1.319385 2.783592
v 2.020716 1.319385 2.764448
v 2.547625 0.043136 2.305029
v 2.562554 0.043136 2.325578
v 2.562554 0.068536 2.325578
v 2.547625 0.068536 2.305029
v 1.404954 0.043136 3.135228
v 1.419884 0.043136 3.155777
v 1.419884 0.068536 3.155777
v 1.404954 0.068536 3.135228
v 2.565878 0.043146 2.322022
v 2.543814 0.043146 2.309439
v 2.544301 0.068527 2.308586
v 2.566365 0.068527 2.321168
v 3.280392 -0.01269 1.069077
v 3.258328 -0.01269 1.056494
v 3.258814 0.01269 1.05564
v 3.280879 0.01269 1.068223
v 2.023693 1.306909 2.764712
v 2.036741 1.306909 2.786504
v 2.017759 1.319385 2.79787
v 2.004711 1.319385 2.776077
v 1.415386 0.049598 3.128924
v 1.428434 0.049598 3.150716
v 1.409451 0.062074 3.162082
v 1.396404 0.062074 3.140289
v 2.015946 1.300457 2.769514
v 2.026401 1.300457 2.792663
v 2.025506 1.325838 2.793067
v 2.015051 1.325838 2.769919
v 0.70143 1.244621 3.363188
v 0.711884 1.244621 3.386336
v 0.710989 1.270002 3.386741
v 0.700534 1.270002 3.363592
v 1.39822 0.049159 3.136763
v 1.406069 0.049159 3.16092
v 1.426618 0.062513 3.154243
v 1.418769 0.062513 3.130086
v 0.69201 1.250634 3.366224
v 0.699859 1.250634 3.390381
v 0.720408 1.263988 3.383704
v 0.712559 1.263988 3.359547
v 1.410326 0.043146 3.132967
v 1.415474 0.043146 3.15784
v 1.414512 0.068527 3.158039
v 1.409363 0.068527 3.133166
v -0.002093 -0.01269 3.425328
v 0.003055 -0.01269 3.450201
v 0.002093 0.01269 3.4504
v -0.003055 0.01269 3.425528
v 0.706209 1.244611 3.362264
v 0.706209 1.244611 3.387664
v 0.706209 1.270011 3.387664
v 0.706209 1.270011 3.362264
v -0.706209 1.244611 3.362264
v -0.706209 1.244611 3.387664
v -0.706209 1.270011 3.387664
v -0.706209 1.270011 3.362264
v 0.716101 1.251073 3.361333
v 0.718355 1.251073 3.386633
v 0.696317 1.263549 3.388595
v 0.694064 1.263549 3.363296
v 0.009892 -0.006238 3.424233
v 0.012145 -0.006238 3.449533
v -0.009892 0.006238 3.451496
v -0.012145 0.006238 3.426196
v 3.440712 1.250634 0.38208
v 3.415312 1.250634 0.38208
v 3.415312 1.263988 0.360473
v 3.440712 1.263988 0.360473
v 3.440712 0.049159 -0.360473
v 3.415312 0.049159 -0.360473
v 3.415312 0.062513 -0.38208
v 3.440712 0.062513 -0.38208
v 3.418105 1.251073 0.357656
v 3.442863 1.251073 0.363331
v 3.43792 1.263549 0.384896
v 3.413162 1.263549 0.379221
v 3.259696 -0.006238 1.048738
v 3.284454 -0.006238 1.054413
v 3.279511 0.006238 1.075979
v 3.254753 0.006238 1.070304
v 3.431937 1.250634 0.355071
v 3.411388 1.250634 0.370001
v 3.424088 1.263988 0.387481
v 3.444637 1.263988 0.372551
v 2.995475 2.45211 -0.245666
v 2.974926 2.45211 -0.230736
v 2.987626 2.465463 -0.213256
v 3.008175 2.465463 -0.228186
v 3.440582 1.244621 0.369393
v 3.415335 1.244621 0.372183
v 3.415443 1.270002 0.373159
v 3.440689 1.270002 0.37037
v 3.282172 1.300457 -1.064242
v 3.256926 1.300457 -1.061452
v 3.257034 1.325838 -1.060475
v 3.28228 1.325838 -1.063265
v 3.415443 0.043146 -0.373159
v 3.440689 0.043146 -0.37037
v 3.440582 0.068527 -0.369393
v 3.415335 0.068527 -0.372183
v 3.257034 -0.01269 1.060475
v 3.28228 -0.01269 1.063265
v 3.282172 0.01269 1.064242
v 3.256926 0.01269 1.061452
v 3.440091 0.043136 -0.375201
v 3.415934 0.043136 -0.367352
v 3.415934 0.068536 -0.367352
v 3.440091 0.068536 -0.375201
v 3.003629 0.043136 -1.718491
v 2.979472 0.043136 -1.710642
v 2.979472 0.068536 -1.710642
v 3.003629 0.068536 -1.718491
v 3.43792 0.049598 -0.384896
v 3.413162 0.049598 -0.379221
v 3.418105 0.062074 -0.357656
v 3.442863 0.062074 -0.363331
v 3.279511 1.306909 -1.075979
v 3.254753 1.306909 -1.070304
v 3.259696 1.319385 -1.048738
v 3.284454 1.319385 -1.054413
v 1.831348 2.209363 -2.523059
v 1.851717 2.209363 -2.538233
v 1.84877 2.234279 -2.542189
v 1.828401 2.234279 -2.527015
v 2.546378 2.446328 -1.563187
v 2.566748 2.446328 -1.57836
v 2.563801 2.471245 -1.582316
v 2.543431 2.471245 -1.567142
v 1.823792 2.214249 -2.53184
v 1.844341 2.214249 -2.516911
v 1.856326 2.229394 -2.533407
v 1.835777 2.229394 -2.548337
v 1.396152 3.193766 -1.943244
v 1.416701 3.193766 -1.928315
v 1.428686 3.208912 -1.944811
v 1.408137 3.208912 -1.959741
v 1.82676 2.214043 -2.523392
v 1.834147 2.214043 -2.547694
v 1.853357 2.2296 -2.541856
v 1.845971 2.2296 -2.517553
v 2.541791 1.249533 -2.306072
v 2.549177 1.249533 -2.330374
v 2.568388 1.26509 -2.324536
v 2.561002 1.26509 -2.300233
v 1.856219 2.214043 -2.531658
v 1.835388 2.214043 -2.517123
v 1.823899 2.2296 -2.53359
v 1.844729 2.2296 -2.548124
v 1.428579 1.249533 -3.144537
v 1.407748 1.249533 -3.130002
v 1.396259 1.26509 -3.146469
v 1.417089 1.26509 -3.161003
v 1.841791 2.209363 -2.545445
v 1.833654 2.209363 -2.521383
v 1.838327 2.234279 -2.519803
v 1.846464 2.234279 -2.543864
v 0.707941 2.446328 -2.928862
v 0.699805 2.446328 -2.904801
v 0.704478 2.471245 -2.903221
v 0.712614 2.471245 -2.927282
v 2.543011 2.446086 -1.568827
v 2.567168 2.446086 -1.576676
v 2.567168 2.471486 -1.576676
v 2.543011 2.471486 -1.568827
v 2.979472 2.446086 -0.225537
v 3.003629 2.446086 -0.233386
v 3.003629 2.471486 -0.233386
v 2.979472 2.471486 -0.225537
v 2.552664 2.447983 -1.586893
v 2.544815 2.447983 -1.562736
v 2.557515 2.46959 -1.55861
v 2.565364 2.46959 -1.582767
v 1.409993 3.190536 -1.958169
v 1.402144 3.190536 -1.934012
v 1.414844 3.212142 -1.929886
v 1.422693 3.212142 -1.954043
v 2.539779 2.449455 -1.571709
v 2.56172 2.449455 -1.558912
v 2.5704 2.468118 -1.573794
v 2.548459 2.468118 -1.586591
v 2.005415 3.428532 -0.655531
v 2.027356 3.428532 -0.642734
v 2.036036 3.447196 -0.657616
v 2.014096 3.447196 -0.670413
v 2.56779 2.45211 -1.561948
v 2.54239 2.45211 -1.561948
v 2.54239 2.465463 -1.583555
v 2.56779 2.465463 -1.583555
v 2.56779 1.250634 -2.304501
v 2.54239 1.250634 -2.304501
v 2.54239 1.263988 -2.326107
v 2.56779 1.263988 -2.326107
v 2.539505 2.451061 -1.568276
v 2.554269 2.451061 -1.588945
v 2.570674 2.466512 -1.577227
v 2.55591 2.466512 -1.556558
v 3.254019 1.305422 -1.057883
v 3.268783 1.305422 -1.078552
v 3.285187 1.320873 -1.066834
v 3.270423 1.320873 -1.046165
v 2.98878 2.449455 -0.244555
v 2.978552 2.449455 -0.221306
v 2.994322 2.468118 -0.214368
v 3.00455 2.468118 -0.237617
v 2.017955 3.428532 -0.671667
v 2.007727 3.428532 -0.648418
v 2.023497 3.447196 -0.64148
v 2.033725 3.447196 -0.664729
v 3.000406 2.451061 -0.215879
v 2.976313 2.451061 -0.223922
v 2.982696 2.466512 -0.243044
v 3.006789 2.466512 -0.235001
v 3.278458 1.305422 -1.048776
v 3.254365 1.305422 -1.056819
v 3.260749 1.320873 -1.075941
v 3.284842 1.320873 -1.067898
v 1.401825 3.188811 -1.936721
v 1.424791 3.188811 -1.947572
v 1.423012 3.213867 -1.951335
v 1.400047 3.213867 -1.940484
v 2.010132 3.425336 -0.649267
v 2.033098 3.425336 -0.660118
v 2.03132 3.450393 -0.663881
v 2.008354 3.450393 -0.65303
v 1.39822 3.190536 -1.946091
v 1.418769 3.190536 -1.931161
v 1.426618 3.212142 -1.941964
v 1.406069 3.212142 -1.956894
v 0.69201 3.933088 -0.974077
v 0.712559 3.933088 -0.959147
v 0.720408 3.954695 -0.969951
v 0.699859 3.954695 -0.98488
v 1.426618 3.190536 -1.946091
v 1.406069 3.190536 -1.931161
v 1.39822 3.212142 -1.941964
v 1.418769 3.212142 -1.956894
v 0.720408 2.447983 -2.918105
v 0.699859 2.447983 -2.903175
v 0.69201 2.46959 -2.913978
v 0.712559 2.46959 -2.928908
v 1.411966 3.188811 -1.956889
v 1.408743 3.188811 -1.931694
v 1.412871 3.213867 -1.931166
v 1.416095 3.213867 -1.956361
v -0.000453 3.425336 -2.137578
v -0.003676 3.425336 -2.112384
v 0.000453 3.450393 -2.111856
v 0.003676 3.450393 -2.13705
v 2.01936 3.42597 -0.669962
v 2.013433 3.42597 -0.645263
v 2.022092 3.449758 -0.643185
v 2.028019 3.449758 -0.667884
v 0.704843 3.931997 -0.985402
v 0.698917 3.931997 -0.960703
v 0.707575 3.955785 -0.958626
v 0.713502 3.955785 -0.983324
v 0.719364 3.931997 -0.974852
v 0.697706 3.931997 -0.961583
v 0.693054 3.955785 -0.969176
v 0.714713 3.955785 -0.982445
v 0.013155 3.42597 -2.127555
v -0.008503 3.42597 -2.114286
v -0.013155 3.449758 -2.121879
v 0.008503 3.449758 -2.135148
v 0.706209 3.931191 -0.984714
v 0.706209 3.931191 -0.959314
v 0.706209 3.956591 -0.959314
v 0.706209 3.956591 -0.984714
v -0.706209 3.931191 -0.984714
v -0.706209 3.931191 -0.959314
v -0.706209 3.956591 -0.959314
v -0.706209 3.956591 -0.984714
v 2.538465 1.250634 -2.316579
v 2.559014 1.250634 -2.331509
v 2.571714 1.263988 -2.314029
v 2.551165 1.263988 -2.299099
v 2.974926 0.049159 -1.715841
v 2.995475 0.049159 -1.730771
v 3.008175 0.062513 -1.713291
v 2.987626 0.062513 -1.698361
v 2.544301 1.244621 -2.308586
v 2.566365 1.244621 -2.321168
v 2.565878 1.270002 -2.322022
v 2.543814 1.270002 -2.309439
v 3.258814 1.300457 -1.05564
v 3.280879 1.300457 -1.068223
v 3.280392 1.325838 -1.069077
v 3.258328 1.325838 -1.056494
v 2.562554 1.244611 -2.325578
v 2.547625 1.244611 -2.305029
v 2.547625 1.270011 -2.305029
v 2.562554 1.270011 -2.325578
v 1.419884 1.244611 -3.155777
v 1.404954 1.244611 -3.135228
v 1.404954 1.270011 -3.135228
v 1.419884 1.270011 -3.155777
v 2.571774 1.251073 -2.317605
v 2.55508 1.251073 -2.298461
v 2.538405 1.263549 -2.313003
v 2.555099 1.263549 -2.332146
v 2.03741 -0.006238 -2.783592
v 2.020716 -0.006238 -2.764448
v 2.004041 0.006238 -2.77899
v 2.020735 0.006238 -2.798133
v 2.984207 0.049598 -1.69941
v 3.007572 0.049598 -1.709371
v 2.998895 0.062074 -1.729723
v 2.97553 0.062074 -1.719762
v 3.262259 1.306909 -1.047202
v 3.285624 1.306909 -1.057163
v 3.276948 1.319385 -1.077515
v 3.253582 1.319385 -1.067554
v 3.001274 0.043146 -1.722751
v 2.982489 0.043146 -1.705655
v 2.981828 0.068527 -1.706381
v 3.000613 0.068527 -1.723478
v 2.030449 -0.01269 -2.789475
v 2.011664 -0.01269 -2.772379
v 2.011003 0.01269 -2.773106
v 2.029788 0.01269 -2.790202
v 1.426618 1.250634 -3.154243
v 1.418769 1.250634 -3.130086
v 1.39822 1.263988 -3.136763
v 1.406069 1.263988 -3.16092
v 0.720408 0.049159 -3.383704
v 0.712559 0.049159 -3.359547
v 0.69201 0.062513 -3.366224
v 0.699859 0.062513 -3.390381
v 1.396404 1.251073 -3.140289
v 1.409451 1.251073 -3.162082
v 1.428434 1.263549 -3.150716
v 1.415386 1.263549 -3.128924
v 2.004711 -0.006238 -2.776077
v 2.017759 -0.006238 -2.79787
v 2.036741 0.006238 -2.786504
v 2.023693 0.006238 -2.764712
v 1.39822 1.250634 -3.154243
v 1.406069 1.250634 -3.130086
v 1.426618 1.263988 -3.136763
v 1.418769 1.263988 -3.16092
v 0.69201 2.45211 -2.924781
v 0.699859 2.45211 -2.900625
v 0.720408 2.465463 -2.907301
v 0.712559 2.465463 -2.931458
v 1.414512 1.244621 -3.158039
v 1.409363 1.244621 -3.133166
v 1.410326 1.270002 -3.132967
v 1.415474 1.270002 -3.15784
v 0.002093 1.300457 -3.4504
v -0.003055 1.300457 -3.425528
v -0.002093 1.325838 -3.425328
v 0.003055 1.325838 -3.450201
v 0.700534 0.043146 -3.363592
v 0.710989 0.043146 -3.386741
v 0.711884 0.068527 -3.386336
v 0.70143 0.068527 -3.363188
v 2.015051 -0.01269 -2.769919
v 2.025506 -0.01269 -2.793067
v 2.026401 0.01269 -2.792663
v 2.015946 0.01269 -2.769514
v 0.706209 0.043136 -3.387664
v 0.706209 0.043136 -3.362264
v 0.706209 0.068536 -3.362264
v 0.706209 0.068536 -3.387664
v -0.706209 0.043136 -3.387664
v -0.706209 0.043136 -3.362264
v -0.706209 0.068536 -3.362264
v -0.706209 0.068536 -3.387664
v 0.696317 0.049598 -3.388595
v 0.694064 0.049598 -3.363296
v 0.716101 0.062074 -3.361333
v 0.718355 0.062074 -3.386633
v -0.009892 1.306909 -3.451496
v -0.012145 1.306909 -3.426196
v 0.009892 1.319385 -3.424233
v 0.012145 1.319385 -3.449533
v -1.833654 2.209363 -2.521383
v -1.841791 2.209363 -2.545445
v -1.846464 2.234279 -2.543864
v -1.838327 2.234279 -2.519803
v -0.699805 2.446328 -2.904801
v -0.707941 2.446328 -2.928862
v -0.712614 2.471245 -2.927282
v -0.704478 2.471245 -2.903221
v -1.844341 2.214249 -2.516911
v -1.823792 2.214249 -2.53184
v -1.835777 2.229394 -2.548337
v -1.856326 2.229394 -2.533407
v -1.416701 3.193766 -1.928315
v -1.396152 3.193766 -1.943244
v -1.408137 3.208912 -1.959741
v -1.428686 3.208912 -1.944811
v -1.835388 2.214043 -2.517123
v -1.856219 2.214043 -2.531658
v -1.844729 2.2296 -2.548124
v -1.823899 2.2296 -2.53359
v -1.407748 1.249533 -3.130002
v -1.428579 1.249533 -3.144537
v -1.417089 1.26509 -3.161003
v -1.396259 1.26509 -3.146469
v -1.834147 2.214043 -2.547694
v -1.82676 2.214043 -2.523392
v -1.845971 2.2296 -2.517553
v -1.853357 2.2296 -2.541856
v -2.549177 1.249533 -2.330374
v -2.541791 1.249533 -2.306072
v -2.561002 1.26509 -2.300233
v -2.568388 1.26509 -2.324536
v -1.851717 2.209363 -2.538233
v -1.831348 2.209363 -2.523059
v -1.828401 2.234279 -2.527015
v -1.84877 2.234279 -2.542189
v -2.566748 2.446328 -1.57836
v -2.546378 2.446328 -1.563187
v -2.543431 2.471245 -1.567142
v -2.563801 2.471245 -1.582316
v -0.706209 2.446086 -2.903341
v -0.706209 2.446086 -2.928741
v -0.706209 2.471486 -2.928741
v -0.706209 2.471486 -2.903341
v 0.706209 2.446086 -2.903341
v 0.706209 2.446086 -2.928741
v 0.706209 2.471486 -2.928741
v 0.706209 2.471486 -2.903341
v -0.720408 2.447983 -2.918105
v -0.699859 2.447983 -2.903175
v -0.69201 2.46959 -2.913978
v -0.712559 2.46959 -2.928908
v -1.426618 3.190536 -1.946091
v -1.406069 3.190536 -1.931161
v -1.39822 3.212142 -1.941964
v -1.418769 3.212142 -1.956894
v -0.709949 2.449455 -2.901158
v -0.690998 2.449455 -2.918071
v -0.70247 2.468118 -2.930925
v -0.721421 2.468118 -2.914012
v -0.00374 3.428532 -2.109834
v 0.015211 3.428532 -2.126746
v 0.00374 3.447196 -2.1396
v -0.015211 3.447196 -2.122688
v -0.69201 2.45211 -2.924781
v -0.699859 2.45211 -2.900625
v -0.720408 2.465463 -2.907301
v -0.712559 2.465463 -2.931458
v -1.39822 1.250634 -3.154243
v -1.406069 1.250634 -3.130086
v -1.426618 1.263988 -3.136763
v -1.418769 1.263988 -3.16092
v -0.706769 2.451061 -2.899837
v -0.721863 2.451061 -2.920265
v -0.70565 2.466512 -2.932246
v -0.690555 2.466512 -2.911817
v -0.00056 1.305422 -3.42166
v -0.015654 1.305422 -3.442088
v 0.00056 1.320873 -3.454069
v 0.015654 1.320873 -3.43364
v 0.690998 2.449455 -2.918071
v 0.709949 2.449455 -2.901158
v 0.721421 2.468118 -2.914012
v 0.70247 2.468118 -2.930925
v -0.015211 3.428532 -2.126746
v 0.00374 3.428532 -2.109834
v 0.015211 3.447196 -2.122688
v -0.00374 3.447196 -2.1396
v 0.721863 2.451061 -2.920265
v 0.706769 2.451061 -2.899837
v 0.690555 2.466512 -2.911817
v 0.70565 2.466512 -2.932246
v 0.015654 1.305422 -3.442088
v 0.00056 1.305422 -3.42166
v -0.015654 1.320873 -3.43364
v -0.00056 1.320873 -3.454069
v -1.408743 3.188811 -1.931694
v -1.411966 3.188811 -1.956889
v -1.416095 3.213867 -1.956361
v -1.412871 3.213867 -1.931166
v 0.003676 3.425336 -2.112384
v 0.000453 3.425336 -2.137578
v -0.003676 3.450393 -2.13705
v -0.000453 3.450393 -2.111856
v -1.418769 3.190536 -1.931161
v -1.39822 3.190536 -1.946091
v -1.406069 3.212142 -1.956894
v -1.426618 3.212142 -1.941964
v -0.712559 3.933088 -0.959147
v -0.69201 3.933088 -0.974077
v -0.699859 3.954695 -0.98488
v -0.720408 3.954695 -0.969951
v -1.409993 3.190536 -1.958169
v -1.402144 3.190536 -1.934012
v -1.414844 3.212142 -1.929886
v -1.422693 3.212142 -1.954043
v -2.552664 2.447983 -1.586893
v -2.544815 2.447983 -1.562736
v -2.557515 2.46959 -1.55861
v -2.565364 2.46959 -1.582767
v -1.424791 3.188811 -1.947572
v -1.401825 3.188811 -1.936721
v -1.400047 3.213867 -1.940484
v -1.423012 3.213867 -1.951335
v -2.033098 3.425336 -0.660118
v -2.010132 3.425336 -0.649267
v -2.008354 3.450393 -0.65303
v -2.03132 3.450393 -0.663881
v -0.013155 3.42597 -2.127555
v 0.008503 3.42597 -2.114286
v 0.013155 3.449758 -2.121879
v -0.008503 3.449758 -2.135148
v -0.719364 3.931997 -0.974852
v -0.697706 3.931997 -0.961583
v -0.693054 3.955785 -0.969176
v -0.714713 3.955785 -0.982445
v -0.704843 3.931997 -0.985402
v -0.698917 3.931997 -0.960703
v -0.707575 3.955785 -0.958626
v -0.713502 3.955785 -0.983324
v -2.01936 3.42597 -0.669962
v -2.013433 3.42597 -0.645263
v -2.022092 3.449758 -0.643185
v -2.028019 3.449758 -0.667884
v -0.718288 3.931191 -0.975938
v -0.694131 3.931191 -0.968089
v -0.694131 3.956591 -0.968089
v -0.718288 3.956591 -0.975938
v -1.154749 3.931191 0.367352
v -1.130592 3.931191 0.375201
v -1.130592 3.956591 0.375201
v -1.154749 3.956591 0.367352
v -1.418769 1.250634 -3.130086
v -1.426618 1.250634 -3.154243
v -1.406069 1.263988 -3.16092
v -1.39822 1.263988 -3.136763
v -0.712559 0.049159 -3.359547
v -0.720408 0.049159 -3.383704
v -0.699859 0.062513 -3.390381
v -0.69201 0.062513 -3.366224
v -1.409363 1.244621 -3.133166
v -1.414512 1.244621 -3.158039
v -1.415474 1.270002 -3.15784
v -1.410326 1.270002 -3.132967
v 0.003055 1.300457 -3.425528
v -0.002093 1.300457 -3.4504
v -0.003055 1.325838 -3.450201
v 0.002093 1.325838 -3.425328
v -1.419884 1.244611 -3.155777
v -1.404954 1.244611 -3.135228
v -1.404954 1.270011 -3.135228
v -1.419884 1.270011 -3.155777
v -2.562554 1.244611 -2.325578
v -2.547625 1.244611 -2.305029
v -2.547625 1.270011 -2.305029
v -2.562554 1.270011 -2.325578
v -1.409451 1.251073 -3.162082
v -1.396404 1.251073 -3.140289
v -1.415386 1.263549 -3.128924
v -1.428434 1.263549 -3.150716
v -2.017759 -0.006238 -2.79787
v -2.004711 -0.006238 -2.776077
v -2.023693 0.006238 -2.764712
v -2.036741 0.006238 -2.786504
v -0.694064 0.049598 -3.363296
v -0.696317 0.049598 -3.388595
v -0.718355 0.062074 -3.386633
v -0.716101 0.062074 -3.361333
v 0.012145 1.306909 -3.426196
v 0.009892 1.306909 -3.451496
v -0.012145 1.319385 -3.449533
v -0.009892 1.319385 -3.424233
v -0.710989 0.043146 -3.386741
v -0.700534 0.043146 -3.363592
v -0.70143 0.068527 -3.363188
v -0.711884 0.068527 -3.386336
v -2.025506 -0.01269 -2.793067
v -2.015051 -0.01269 -2.769919
v -2.015946 0.01269 -2.769514
v -2.026401 0.01269 -2.792663
v -2.559014 1.250634 -2.331509
v -2.538465 1.250634 -2.316579
v -2.551165 1.263988 -2.299099
v -2.571714 1.263988 -2.314029
v -2.995475 0.049159 -1.730771
v -2.974926 0.049159 -1.715841
v -2.987626 0.062513 -1.698361
v -3.008175 0.062513 -1.713291
v -2.55508 1.251073 -2.298461
v -2.571774 1.251073 -2.317605
v -2.555099 1.263549 -2.332146
v -2.538405 1.263549 -2.313003
v -2.020716 -0.006238 -2.764448
v -2.03741 -0.006238 -2.783592
v -2.020735 0.006238 -2.798133
v -2.004041 0.006238 -2.77899
v -2.56779 1.250634 -2.304501
v -2.54239 1.250634 -2.304501
v -2.54239 1.263988 -2.326107
v -2.56779 1.263988 -2.326107
v -2.56779 2.45211 -1.561948
v -2.54239 2.45211 -1.561948
v -2.54239 2.465463 -1.583555
v -2.56779 2.465463 -1.583555
v -2.566365 1.244621 -2.321168
v -2.544301 1.244621 -2.308586
v -2.543814 1.270002 -2.309439
v -2.565878 1.270002 -2.322022
v -3.280879 1.300457 -1.068223
v -3.258814 1.300457 -1.05564
v -3.258328 1.325838 -1.056494
v -3.280392 1.325838 -1.069077
v -2.982489 0.043146 -1.705655
v -3.001274 0.043146 -1.722751
v -3.000613 0.068527 -1.723478
v -2.981828 0.068527 -1.706381
v -2.011664 -0.01269 -2.772379
v -2.030449 -0.01269 -2.789475
v -2.029788 0.01269 -2.790202
v -2.011003 0.01269 -2.773106
v -3.003629 0.043136 -1.718491
v -2.979472 0.043136 -1.710642
v -2.979472 0.068536 -1.710642
v -3.003629 0.068536 -1.718491
v -3.440091 0.043136 -0.375201
v -3.415934 0.043136 -0.367352
v -3.415934 0.068536 -0.367352
v -3.440091 0.068536 -0.375201
v -3.007572 0.049598 -1.709371
v -2.984207 0.049598 -1.69941
v -2.97553 0.062074 -1.719762
v -2.998895 0.062074 -1.729723
v -3.285624 1.306909 -1.057163
v -3.262259 1.306909 -1.047202
v -3.253582 1.319385 -1.067554
v -3.276948 1.319385 -1.077515
v -2.964608 2.209363 0.964758
v -2.990006 2.209363 0.965061
v -2.989948 2.234279 0.969994
v -2.964549 2.234279 0.969691
v -2.978881 2.446328 -0.232079
v -3.004279 2.446328 -0.231776
v -3.004221 2.471245 -0.226844
v -2.978822 2.471245 -0.227146
v -2.963657 2.214249 0.976304
v -2.971506 2.214249 0.952147
v -2.990899 2.229394 0.958448
v -2.98305 2.229394 0.982605
v -2.271721 3.193766 0.75148
v -2.27957 3.193766 0.727324
v -2.298962 3.208912 0.733625
v -2.291113 3.208912 0.757781
v -2.961093 2.214043 0.967724
v -2.981353 2.214043 0.983044
v -2.993463 2.2296 0.967028
v -2.973203 2.2296 0.951709
v -3.411827 1.249533 0.371624
v -3.432087 1.249533 0.386944
v -3.444197 1.26509 0.370928
v -3.423937 1.26509 0.355609
v -2.989784 2.214043 0.957096
v -2.964388 2.214043 0.957581
v -2.964772 2.2296 0.977656
v -2.990167 2.2296 0.977171
v -3.004057 1.249533 1.704286
v -2.978661 1.249533 1.704772
v -2.979045 1.26509 1.724846
v -3.00444 1.26509 1.724361
v -2.986215 2.209363 0.976731
v -2.965489 2.209363 0.962047
v -2.968341 2.234279 0.958022
v -2.989066 2.234279 0.972705
v -2.294278 2.446328 1.953382
v -2.273553 2.446328 1.938698
v -2.276405 2.471245 1.934673
v -2.29713 2.471245 1.949357
v -2.979472 2.446086 -0.225537
v -3.003629 2.446086 -0.233386
v -3.003629 2.471486 -0.233386
v -2.979472 2.471486 -0.225537
v -2.543011 2.446086 -1.568827
v -2.567168 2.446086 -1.576676
v -2.567168 2.471486 -1.576676
v -2.543011 2.471486 -1.568827
v -2.997901 2.447983 -0.216595
v -2.977352 2.447983 -0.231525
v -2.985201 2.46959 -0.242328
v -3.00575 2.46959 -0.227398
v -2.291692 3.190536 0.755419
v -2.271143 3.190536 0.740489
v -2.278992 3.212142 0.729686
v -2.299541 3.212142 0.744616
v -2.978552 2.449455 -0.221306
v -2.98878 2.449455 -0.244555
v -3.00455 2.468118 -0.237617
v -2.994322 2.468118 -0.214368
v -2.007727 3.428532 -0.648418
v -2.017955 3.428532 -0.671667
v -2.033725 3.447196 -0.664729
v -2.023497 3.447196 -0.64148
v -2.995475 2.45211 -0.245666
v -2.974926 2.45211 -0.230736
v -2.987626 2.465463 -0.213256
v -3.008175 2.465463 -0.228186
v -3.431937 1.250634 0.355071
v -3.411388 1.250634 0.370001
v -3.424088 1.263988 0.387481
v -3.444637 1.263988 0.372551
v -2.976313 2.451061 -0.223922
v -3.000406 2.451061 -0.215879
v -3.006789 2.466512 -0.235001
v -2.982696 2.466512 -0.243044
v -3.254365 1.305422 -1.056819
v -3.278458 1.305422 -1.048776
v -3.284842 1.320873 -1.067898
v -3.260749 1.320873 -1.075941
v -2.56172 2.449455 -1.558912
v -2.539779 2.449455 -1.571709
v -2.548459 2.468118 -1.586591
v -2.5704 2.468118 -1.573794
v -2.027356 3.428532 -0.642734
v -2.005415 3.428532 -0.655531
v -2.014096 3.447196 -0.670413
v -2.036036 3.447196 -0.657616
v -2.554269 2.451061 -1.588945
v -2.539505 2.451061 -1.568276
v -2.55591 2.466512 -1.556558
v -2.570674 2.466512 -1.577227
v -3.268783 1.305422 -1.078552
v -3.254019 1.305422 -1.057883
v -3.270423 1.320873 -1.046165
v -3.285187 1.320873 -1.066834
v -2.272476 3.188811 0.742868
v -2.297434 3.188811 0.738148
v -2.298207 3.213867 0.742237
v -2.273249 3.213867 0.746957
v -2.00786 3.425336 -0.656258
v -2.032818 3.425336 -0.660979
v -2.033591 3.450393 -0.656889
v -2.008634 3.450393 -0.652169
v -2.275067 3.190536 0.752568
v -2.282916 3.190536 0.728411
v -2.295616 3.212142 0.732537
v -2.287767 3.212142 0.756694
v -1.132396 3.933088 0.381291
v -1.140245 3.933088 0.357135
v -1.152945 3.954695 0.361261
v -1.145096 3.954695 0.385418
v -2.298042 3.190536 0.735876
v -2.272642 3.190536 0.735876
v -2.272642 3.212142 0.749229
v -2.298042 3.212142 0.749229
v -2.298042 2.447983 1.937351
v -2.272642 2.447983 1.937351
v -2.272642 2.46959 1.950704
v -2.298042 2.46959 1.950704
v -2.292535 3.188811 0.753224
v -2.275118 3.188811 0.734735
v -2.278148 3.213867 0.731881
v -2.295565 3.213867 0.75037
v -1.256071 3.425336 1.729603
v -1.238654 3.425336 1.711115
v -1.241684 3.450393 1.708261
v -1.2591 3.450393 1.726749
v -2.02749 3.42597 -0.644939
v -2.008178 3.42597 -0.661437
v -2.013962 3.449758 -0.668208
v -2.033274 3.449758 -0.65171
v -1.149435 3.931997 0.38291
v -1.130123 3.931997 0.366412
v -1.135906 3.955785 0.359642
v -1.155219 3.955785 0.37614
v -1.154982 3.931997 0.36584
v -1.12966 3.931997 0.367836
v -1.13036 3.955785 0.376712
v -1.155681 3.955785 0.374717
v -1.261188 3.42597 1.713496
v -1.235867 3.42597 1.715491
v -1.236566 3.449758 1.724368
v -1.261888 3.449758 1.722373
v -3.415312 1.250634 0.38208
v -3.440712 1.250634 0.38208
v -3.440712 1.263988 0.360473
v -3.415312 1.263988 0.360473
v -3.415312 0.049159 -0.360473
v -3.440712 0.049159 -0.360473
v -3.440712 0.062513 -0.38208
v -3.415312 0.062513 -0.38208
v -3.415335 1.244621 0.372183
v -3.440582 1.244621 0.369393
v -3.440689 1.270002 0.37037
v -3.415443 1.270002 0.373159
v -3.256926 1.300457 -1.061452
v -3.282172 1.300457 -1.064242
v -3.28228 1.325838 -1.063265
v -3.257034 1.325838 -1.060475
v -3.440091 1.244611 0.375201
v -3.415934 1.244611 0.367352
v -3.415934 1.270011 0.367352
v -3.440091 1.270011 0.375201
v -3.003629 1.244611 1.718491
v -2.979472 1.244611 1.710642
v -2.979472 1.270011 1.710642
v -3.003629 1.270011 1.718491
v -3.442863 1.251073 0.363331
v -3.418105 1.251073 0.357656
v -3.413162 1.263549 0.379221
v -3.43792 1.263549 0.384896
v -3.284454 -0.006238 1.054413
v -3.259696 -0.006238 1.048738
v -3.254753 0.006238 1.070304
v -3.279511 0.006238 1.075979
v -3.413162 0.049598 -0.379221
v -3.43792 0.049598 -0.384896
v -3.442863 0.062074 -0.363331
v -3.418105 0.062074 -0.357656
v -3.254753 1.306909 -1.070304
v -3.279511 1.306909 -1.075979
v -3.284454 1.319385 -1.054413
v -3.259696 1.319385 -1.048738
v -3.440689 0.043146 -0.37037
v -3.415443 0.043146 -0.373159
v -3.415335 0.068527 -0.372183
v -3.440582 0.068527 -0.369393
v -3.28228 -0.01269 1.063265
v -3.257034 -0.01269 1.060475
v -3.256926 0.01269 1.061452
v -3.282172 0.01269 1.064242
v -3.008175 1.250634 1.713291
v -2.987626 1.250634 1.698361
v -2.974926 1.263988 1.715841
v -2.995475 1.263988 1.730771
v -2.571714 0.049159 2.314029
v -2.551165 0.049159 2.299099
v -2.538465 0.062513 2.316579
v -2.559014 0.062513 2.331509
v -2.97553 1.251073 1.719762
v -2.998895 1.251073 1.729723
v -3.007572 1.263549 1.709371
v -2.984207 1.263549 1.69941
v -3.253582 -0.006238 1.067554
v -3.276948 -0.006238 1.077515
v -3.285624 0.006238 1.057163
v -3.262259 0.006238 1.047202
v -2.985201 1.250634 1.729983
v -2.977352 1.250634 1.705826
v -2.997901 1.263988 1.699149
v -3.00575 1.263988 1.723306
v -2.278992 2.45211 1.959444
v -2.271143 2.45211 1.935288
v -2.291692 2.465463 1.928611
v -2.299541 2.465463 1.952768
v -3.000613 1.244621 1.723478
v -2.981828 1.244621 1.706381
v -2.982489 1.270002 1.705655
v -3.001274 1.270002 1.722751
v -2.029788 1.300457 2.790202
v -2.011003 1.300457 2.773106
v -2.011664 1.325838 2.772379
v -2.030449 1.325838 2.789475
v -2.543814 0.043146 2.309439
v -2.565878 0.043146 2.322022
v -2.566365 0.068527 2.321168
v -2.544301 0.068527 2.308586
v -3.258328 -0.01269 1.056494
v -3.280392 -0.01269 1.069077
v -3.280879 0.01269 1.068223
v -3.258814 0.01269 1.05564
v -2.562554 0.043136 2.325578
v -2.547625 0.043136 2.305029
v -2.547625 0.068536 2.305029
v -2.562554 0.068536 2.325578
v -1.419884 0.043136 3.155777
v -1.404954 0.043136 3.135228
v -1.404954 0.068536 3.135228
v -1.419884 0.068536 3.155777
v -2.555099 0.049598 2.332146
v -2.538405 0.049598 2.313003
v -2.55508 0.062074 2.298461
v -2.571774 0.062074 2.317605
v -2.020735 1.306909 2.798133
v -2.004041 1.306909 2.77899
v -2.020716 1.319385 2.764448
v -2.03741 1.319385 2.783592
v -1.135206 2.446086 2.763952
v -1.150136 2.446086 2.784501
v -1.150136 2.471486 2.784501
v -1.135206 2.471486 2.763952
v -2.277877 2.446086 1.933753
v -2.292806 2.446086 1.954302
v -2.292806 2.471486 1.954302
v -2.277877 2.471486 1.933753
v -1.130897 2.449455 2.764384
v -1.15617 2.449455 2.766927
v -1.154444 2.468118 2.784069
v -1.129172 2.468118 2.781526
v -1.237104 3.428532 1.709089
v -1.262376 3.428532 1.711633
v -1.260651 3.447196 1.728775
v -1.235379 3.447196 1.726231
v -1.159295 2.45211 2.772951
v -1.138746 2.45211 2.758022
v -1.126046 2.465463 2.775502
v -1.146595 2.465463 2.790431
v -0.722834 1.250634 3.373689
v -0.702285 1.250634 3.358759
v -0.689585 1.263988 3.376239
v -0.710134 1.263988 3.391169
v -1.132693 2.451061 2.761446
v -1.132489 2.451061 2.786845
v -1.152648 2.466512 2.787007
v -1.152852 2.466512 2.761608
v -2.010749 1.305422 2.76851
v -2.010544 1.305422 2.793909
v -2.030703 1.320873 2.794071
v -2.030908 1.320873 2.768672
v -2.274228 2.449455 1.95461
v -2.279619 2.449455 1.929789
v -2.296455 2.468118 1.933445
v -2.291064 2.468118 1.958267
v -1.237764 3.428532 1.729515
v -1.243155 3.428532 1.704693
v -1.259991 3.447196 1.70835
v -1.2546 3.447196 1.733171
v -2.300489 2.451061 1.938244
v -2.27627 2.451061 1.930589
v -2.270194 2.466512 1.949812
v -2.294414 2.466512 1.957466
v -2.035873 1.305422 2.775507
v -2.011654 1.305422 2.767852
v -2.005579 1.320873 2.787075
v -2.029798 1.320873 2.794729
v -0.69201 1.250634 3.366224
v -0.699859 1.250634 3.390381
v -0.720408 1.263988 3.383704
v -0.712559 1.263988 3.359547
v -1.39822 0.049159 3.136763
v -1.406069 0.049159 3.16092
v -1.426618 0.062513 3.154243
v -1.418769 0.062513 3.130086
v -0.70143 1.244621 3.363188
v -0.711884 1.244621 3.386336
v -0.710989 1.270002 3.386741
v -0.700534 1.270002 3.363592
v -2.015946 1.300457 2.769514
v -2.026401 1.300457 2.792663
v -2.025506 1.325838 2.793067
v -2.015051 1.325838 2.769919
v -0.718355 1.251073 3.386633
v -0.716101 1.251073 3.361333
v -0.694064 1.263549 3.363296
v -0.696317 1.263549 3.388595
v -0.012145 -0.006238 3.449533
v -0.009892 -0.006238 3.424233
v 0.012145 0.006238 3.426196
v 0.009892 0.006238 3.451496
v -1.415386 0.049598 3.128924
v -1.428434 0.049598 3.150716
v -1.409451 0.062074 3.162082
v -1.396404 0.062074 3.140289
v -2.023693 1.306909 2.764712
v -2.036741 1.306909 2.786504
v -2.017759 1.319385 2.79787
v -2.004711 1.319385 2.776077
v -1.415474 0.043146 3.15784
v -1.410326 0.043146 3.132967
v -1.409363 0.068527 3.133166
v -1.414512 0.068527 3.158039
v -0.003055 -0.01269 3.450201
v 0.002093 -0.01269 3.425328
v 0.003055 0.01269 3.425528
v -0.002093 0.01269 3.4504
f 1 2 3 4
f 5 8 7 6
f 1 5 6 2
f 2 6 7 3
f 3 7 8 4
f 4 8 5 1
f 9 10 11 12
f 13 16 15 14
f 9 13 14 10
f 10 14 15 11
f 11 15 16 12
f 12 16 13 9
f 17 18 19 20
f 21 24 23 22
f 17 21 22 18
f 18 22 23 19
f 19 23 24 20
f 20 24 21 17
f 25 26 27 28
f 29 32 31 30
f 25 29 30 26
f 26 30 31 27
f 27 31 32 28
f 28 32 29 25
f 33 34 35 36
f 37 40 39 38
f 33 37 38 34
f 34 38 39 35
f 35 39 40 36
f 36 40 37 33
f 41 42 43 44
f 45 48 47 46
f 41 45 46 42
f 42 46 47 43
f 43 47 48 44
f 44 48 45 41
f 49 50 51 52
f 53 56 55 54
f 49 53 54 50
f 50 54 55 51
f 51 55 56 52
f 52 56 53 49
f 57 58 59 60
f 61 64 63 62
f 57 61 62 58
f 58 62 63 59
f 59 63 64 60
f 60 64 61 57
f 65 66 67 68
f 69 72 71 70
f 65 69 70 66
f 66 70 71 67
f 67 71 72 68
f 68 72 69 65
f 73 74 75 76
f 77 80 79 78
f 73 77 78 74
f 74 78 79 75
f 75 79 80 76
f 76 80 77 73
f 81 82 83 84
f 85 88 87 86
f 81 85 86 82
f 82 86 87 83
f 83 87 88 84
f 84 88 85 81
f 89 90 91 92
f 93 96 95 94
f 89 93 94 90
f 90 94 95 91
f 91 95 96 92
f 92 96 93 89
f 97 98 99 100
f 101 104 103 102
f 97 101 102 98
f 98 102 103 99
f 99 103 104 100
f 100 104 101 97
f 105 106 107 108
f 109 112 111 110
f 105 109 110 106
f 106 110 111 107
f 107 111 112 108
f 108 112 109 105
f 113 114 115 116
f 117 120 119 118
f 113 117 118 114
f 114 118 119 115
f 115 119 120 116
f 116 120 117 113
f 121 122 123 124
f 125 128 127 126
f 121 125 126 122
f 122 126 127 123
f 123 127 128 124
f 124 128 125 121
f 129 130 131 132
f 133 136 135 134
f 129 133 134 130
f 130 134 135 131
f 131 135 136 132
f 132 136 133 129
f 137 138 139 140
f 141 144 143 142
f 137 141 142 138
f 138 142 143 139
f 139 143 144 140
f 140 144 141 137
f 145 146 147 148
f 149 152 151 150
f 145 149 150 146
f 146 150 151 147
f 147 151 152 148
f 148 152 149 145
f 153 154 155 156
f 157 160 159 158
f 153 157 158 154
f 154 158 159 155
f 155 159 160 156
f 156 160 157 153
f 161 162 163 164
f 165 168 167 166
f 161 165 166 162
f 162 166 167 163
f 163 167 168 164
f 164 168 165 161
f 169 170 171 172
f 173 176 175 174
f 169 173 174 170
f 170 174 175 171
f 171 175 176 172
f 172 176 173 169
f 177 178 179 180
f 181 184 183 182
f 177 181 182 178
f 178 182 183 179
f 179 183 184 180
f 180 184 181 177
f 185 186 187 188
f 189 192 191 190
f 185 189 190 186
f 186 190 191 187
f 187 191 192 188
f 188 192 189 185
f 193 194 195 196
f 197 200 199 198
f 193 197 198 194
f 194 198 199 195
f 195 199 200 196
f 196 200 197 193
f 201 202 203 204
f 205 208 207 206
f 201 205 206 202
f 202 206 207 203
f 203 207 208 204
f 204 208 205 201
f 209 210 211 212
f 213 216 215 214
f 209 213 214 210
f 210 214 215 211
f 211 215 216 212
f 212 216 213 209
f 217 218 219 220
f 221 224 223 222
f 217 221 222 218
f 218 222 223 219
f 219 223 224 220
f 220 224 221 217
f 225 226 227 228
f 229 232 231 230
f 225 229 230 226
f 226 230 231 227
f 227 231 232 228
f 228 232 229 225
f 233 234 235 236
f 237 240 239 238
f 233 237 238 234
f 234 238 239 235
f 235 239 240 236
f 236 240 237 233
f 241 242 243 244
f 245 248 247 246
f 241 245 246 242
f 242 246 247 243
f 243 247 248 244
f 244 248 245 241
f 249 250 251 252
f 253 256 255 254
f 249 253 254 250
f 250 254 255 251
f 251 255 256 252
f 252 256 253 249
f 257 258 259 260
f 261 264 263 262
f 257 261 262 258
f 258 262 263 259
f 259 263 264 260
f 260 264 261 257
f 265 266 267 268
f 269 272 271 270
f 265 269 270 266
f 266 270 271 267
f 267 271 272 268
f 268 272 269 265
f 273 274 275 276
f 277 280 279 278
f 273 277 278 274
f 274 278 279 275
f 275 279 280 276
f 276 280 277 273
f 281 282 283 284
f 285 288 287 286
f 281 285 286 282
f 282 286 287 283
f 283 287 288 284
f 284 288 285 281
f 289 290 291 292
f 293 296 295 294
f 289 293 294 290
f 290 294 295 291
f 291 295 296 292
f 292 296 293 289
f 297 298 299 300
f 301 304 303 302
f 297 301 302 298
f 298 302 303 299
f 299 303 304 300
f 300 304 301 297
f 305 306 307 308
f 309 312 311 310
f 305 309 310 306
f 306 310 311 307
f 307 311 312 308
f 308 312 309 305
f 313 314 315 316
f 317 320 319 318
f 313 317 318 314
f 314 318 319 315
f 315 319 320 316
f 316 320 317 313
f 321 322 323 324
f 325 328 327 326
f 321 325 326 322
f 322 326 327 323
f 323 327 328 324
f 324 328 325 321
f 329 330 331 332
f 333 336 335 334
f 329 333 334 330
f 330 334 335 331
f 331 335 336 332
f 332 336 333 329
f 337 338 339 340
f 341 344 343 342
f 337 341 342 338
f 338 342 343 339
f 339 343 344 340
f 340 344 341 337
f 345 346 347 348
f 349 352 351 350
f 345 349 350 346
f 346 350 351 347
f 347 351 352 348
f 348 352 349 345
f 353 354 355 356
f 357 360 359 358
f 353 357 358 354
f 354 358 359 355
f 355 359 360 356
f 356 360 357 353
f 361 362 363 364
f 365 368 367 366
f 361 365 366 362
f 362 366 367 363
f 363 367 368 364
f 364 368 365 361
f 369 370 371 372
f 373 376 375 374
f 369 373 374 370
f 370 374 375 371
f 371 375 376 372
f 372 376 373 369
f 377 378 379 380
f 381 384 383 382
f 377 381 382 378
f 378 382 383 379
f 379 383 384 380
f 380 384 381 377
f 385 386 387 388
f 389 392 391 390
f 385 389 390 386
f 386 390 391 387
f 387 391 392 388
f 388 392 389 385
f 393 394 395 396
f 397 400 399 398
f 393 397 398 394
f 394 398 399 395
f 395 399 400 396
f 396 400 397 393
f 401 402 403 404
f 405 408 407 406
f 401 405 406 402
f 402 406 407 403
f 403 407 408 404
f 404 408 405 401
f 409 410 411 412
f 413 416 415 414
f 409 413 414 410
f 410 414 415 411
f 411 415 416 412
f 412 416 413 409
f 417 418 419 420
f 421 424 423 422
f 417 421 422 418
f 418 422 423 419
f 419 423 424 420
f 420 424 421 417
f 425 426 427 428
f 429 432 431 430
f 425 429 430 426
f 426 430 431 427
f 427 431 432 428
f 428 432 429 425
f 433 434 435 436
f 437 440 439 438
f 433 437 438 434
f 434 438 439 435
f 435 439 440 436
f 436 440 437 433
f 441 442 443 444
f 445 448 447 446
f 441 445 446 442
f 442 446 447 443
f 443 447 448 444
f 444 448 445 441
f 449 450 451 452
f 453 456 455 454
f 449 453 454 450
f 450 454 455 451
f 451 455 456 452
f 452 456 453 449
f 457 458 459 460
f 461 464 463 462
f 457 461 462 458
f 458 462 463 459
f 459 463 464 460
f 460 464 461 457
f 465 466 467 468
f 469 472 471 470
f 465 469 470 466
f 466 470 471 467
f 467 471 472 468
f 468 472 469 465
f 473 474 475 476
f 477 480 479 478
f 473 477 478 474
f 474 478 479 475
f 475 479 480 476
f 476 480 477 473
f 481 482 483 484
f 485 488 487 486
f 481 485 486 482
f 482 486 487 483
f 483 487 488 484
f 484 488 485 481
f 489 490 491 492
f 493 496 495 494
f 489 493 494 490
f 490 494 495 491
f 491 495 496 492
f 492 496 493 489
f 497 498 499 500
f 501 504 503 502
f 497 501 502 498
f 498 502 503 499
f 499 503 504 500
f 500 504 501 497
f 505 506 507 508
f 509 512 511 510
f 505 509 510 506
f 506 510 511 507
f 507 511 512 508
f 508 512 509 505
f 513 514 515 516
f 517 520 519 518
f 513 517 518 514
f 514 518 519 515
f 515 519 520 516
f 516 520 517 513
f 521 522 523 524
f 525 528 527 526
f 521 525 526 522
f 522 526 527 523
f 523 527 528 524
f 524 528 525 521
f 529 530 531 532
f 533 536 535 534
f 529 533 534 530
f 530 534 535 531
f 531 535 536 532
f 532 536 533 529
f 537 538 539 540
f 541 544 543 542
f 537 541 542 538
f 538 542 543 539
f 539 543 544 540
f 540 544 541 537
f 545 546 547 548
f 549 552 551 550
f 545 549 550 546
f 546 550 551 547
f 547 551 552 548
f 548 552 549 545
f 553 554 555 556
f 557 560 559 558
f 553 557 558 554
f 554 558 559 555
f 555 559 560 556
f 556 560 557 553
f 561 562 563 564
f 565 568 567 566
f 561 565 566 562
f 562 566 567 563
f 563 567 568 564
f 564 568 565 561
f 569 570 571 572
f 573 576 575 574
f 569 573 574 570
f 570 574 575 571
f 571 575 576 572
f 572 576 573 569
f 577 578 579 580
f 581 584 583 582
f 577 581 582 578
f 578 582 583 579
f 579 583 584 580
f 580 584 581 577
f 585 586 587 588
f 589 592 591 590
f 585 589 590 586
f 586 590 591 587
f 587 591 592 588
f 588 592 589 585
f 593 594 595 596
f 597 600 599 598
f 593 597 598 594
f 594 598 599 595
f 595 599 600 596
f 596 600 597 593
f 601 602 603 604
f 605 608 607 606
f 601 605 606 602
f 602 606 607 603
f 603 607 608 604
f 604 608 605 601
f 609 610 611 612
f 613 616 615 614
f 609 613 614 610
f 610 614 615 611
f 611 615 616 612
f 612 616 613 609
f 617 618 619 620
f 621 624 623 622
f 617 621 622 618
f 618 622 623 619
f 619 623 624 620
f 620 624 621 617
f 625 626 627 628
f 629 632 631 630
f 625 629 630 626
f 626 630 631 627
f 627 631 632 628
f 628 632 629 625
f 633 634 635 636
f 637 640 639 638
f 633 637 638 634
f 634 638 639 635
f 635 639 640 636
f 636 640 637 633
f 641 642 643 644
f 645 648 647 646
f 641 645 646 642
f 642 646 647 643
f 643 647 648 644
f 644 648 645 641
f 649 650 651 652
f 653 656 655 654
f 649 653 654 650
f 650 654 655 651
f 651 655 656 652
f 652 656 653 649
f 657 658 659 660
f 661 664 663 662
f 657 661 662 658
f 658 662 663 659
f 659 663 664 660
f 660 664 661 657
f 665 666 667 668
f 669 672 671 670
f 665 669 670 666
f 666 670 671 667
f 667 671 672 668
f 668 672 669 665
f 673 674 675 676
f 677 680 679 678
f 673 677 678 674
f 674 678 679 675
f 675 679 680 676
f 676 680 677 673
f 681 682 683 684
f 685 688 687 686
f 681 685 686 682
f 682 686 687 683
f 683 687 688 684
f 684 688 685 681
f 689 690 691 692
f 693 696 695 694
f 689 693 694 690
f 690 694 695 691
f 691 695 696 692
f 692 696 693 689
f 697 698 699 700
f 701 704 703 702
f 697 701 702 698
f 698 702 703 699
f 699 703 704 700
f 700 704 701 697
f 705 706 707 708
f 709 712 711 710
f 705 709 710 706
f 706 710 711 707
f 707 711 712 708
f 708 712 709 705
f 713 714 715 716
f 717 720 719 718
f 713 717 718 714
f 714 718 719 715
f 715 719 720 716
f 716 720 717 713
f 721 722 723 724
f 725 728 727 726
f 721 725 726 722
f 722 726 727 723
f 723 727 728 724
f 724 728 725 721
f 729 730 731 732
f 733 736 735 734
f 729 733 734 730
f 730 734 735 731
f 731 735 736 732
f 732 736 733 729
f 737 738 739 740
f 741 744 743 742
f 737 741 742 738
f 738 742 743 739
f 739 743 744 740
f 740 744 741 737
f 745 746 747 748
f 749 752 751 750
f 745 749 750 746
f 746 750 751 747
f 747 751 752 748
f 748 752 749 745
f 753 754 755 756
f 757 760 759 758
f 753 757 758 754
f 754 758 759 755
f 755 759 760 756
f 756 760 757 753
f 761 762 763 764
f 765 768 767 766
f 761 765 766 762
f 762 766 767 763
f 763 767 768 764
f 764 768 765 761
f 769 770 771 772
f 773 776 775 774
f 769 773 774 770
f 770 774 775 771
f 771 775 776 772
f 772 776 773 769
f 777 778 779 780
f 781 784 783 782
f 777 781 782 778
f 778 782 783 779
f 779 783 784 780
f 780 784 781 777
f 785 786 787 788
f 789 792 791 790
f 785 789 790 786
f 786 790 791 787
f 787 791 792 788
f 788 792 789 785
f 793 794 795 796
f 797 800 799 798
f 793 797 798 794
f 794 798 799 795
f 795 799 800 796
f 796 800 797 793
f 801 802 803 804
f 805 808 807 806
f 801 805 806 802
f 802 806 807 803
f 803 807 808 804
f 804 808 805 801
f 809 810 811 812
f 813 816 815 814
f 809 813 814 810
f 810 814 815 811
f 811 815 816 812
f 812 816 813 809
f 817 818 819 820
f 821 824 823 822
f 817 821 822 818
f 818 822 823 819
f 819 823 824 820
f 820 824 821 817
f 825 826 827 828
f 829 832 831 830
f 825 829 830 826
f 826 830 831 827
f 827 831 832 828
f 828 832 829 825
f 833 834 835 836
f 837 840 839 838
f 833 837 838 834
f 834 838 839 835
f 835 839 840 836
f 836 840 837 833
f 841 842 843 844
f 845 848 847 846
f 841 845 846 842
f 842 846 847 843
f 843 847 848 844
f 844 848 845 841
f 849 850 851 852
f 853 856 855 854
f 849 853 854 850
f 850 854 855 851
f 851 855 856 852
f 852 856 853 849
f 857 858 859 860
f 861 864 863 862
f 857 861 862 858
f 858 862 863 859
f 859 863 864 860
f 860 864 861 857
f 865 866 867 868
f 869 872 871 870
f 865 869 870 866
f 866 870 871 867
f 867 871 872 868
f 868 872 869 865
f 873 874 875 876
f 877 880 879 878
f 873 877 878 874
f 874 878 879 875
f 875 879 880 876
f 876 880 877 873
f 881 882 883 884
f 885 888 887 886
f 881 885 886 882
f 882 886 887 883
f 883 887 888 884
f 884 888 885 881
f 889 890 891 892
f 893 896 895 894
f 889 893 894 890
f 890 894 895 891
f 891 895 896 892
f 892 896 893 889
f 897 898 899 900
f 901 904 903 902
f 897 901 902 898
f 898 902 903 899
f 899 903 904 900
f 900 904 901 897
f 905 906 907 908
f 909 912 911 910
f 905 909 910 906
f 906 910 911 907
f 907 911 912 908
f 908 912 909 905
f 913 914 915 916
f 917 920 919 918
f 913 917 918 914
f 914 918 919 915
f 915 919 920 916
f 916 920 917 913
f 921 922 923 924
f 925 928 927 926
f 921 925 926 922
f 922 926 927 923
f 923 927 928 924
f 924 928 925 921
f 929 930 931 932
f 933 936 935 934
f 929 933 934 930
f 930 934 935 931
f 931 935 936 932
f 932 936 933 929
f 937 938 939 940
f 941 944 943 942
f 937 941 942 938
f 938 942 943 939
f 939 943 944 940
f 940 944 941 937
f 945 946 947 948
f 949 952 951 950
f 945 949 950 946
f 946 950 951 947
f 947 951 952 948
f 948 952 949 945
f 953 954 955 956
f 957 960 959 958
f 953 957 958 954
f 954 958 959 955
f 955 959 960 956
f 956 960 957 953
f 961 962 963 964
f 965 968 967 966
f 961 965 966 962
f 962 966 967 963
f 963 967 968 964
f 964 968 965 961
f 969 970 971 972
f 973 976 975 974
f 969 973 974 970
f 970 974 975 971
f 971 975 976 972
f 972 976 973 969
f 977 978 979 980
f 981 984 983 982
f 977 981 982 978
f 978 982 983 979
f 979 983 984 980
f 980 984 981 977
f 985 986 987 988
f 989 992 991 990
f 985 989 990 986
f 986 990 991 987
f 987 991 992 988
f 988 992 989 985
f 993 994 995 996
f 997 1000 999 998
f 993 997 998 994
f 994 998 999 995
f 995 999 1000 996
f 996 1000 997 993
f 1001 1002 1003 1004
f 1005 1008 1007 1006
f 1001 1005 1006 1002
f 1002 1006 1007 1003
f 1003 1007 1008 1004
f 1004 1008 1005 1001
f 1009 1010 1011 1012
f 1013 1016 1015 1014
f 1009 1013 1014 1010
f 1010 1014 1015 1011
f 1011 1015 1016 1012
f 1012 1016 1013 1009
f 1017 1018 1019 1020
f 1021 1024 1023 1022
f 1017 1021 1022 1018
f 1018 1022 1023 1019
f 1019 1023 1024 1020
f 1020 1024 1021 1017
f 1025 1026 1027 1028
f 1029 1032 1031 1030
f 1025 1029 1030 1026
f 1026 1030 1031 1027
f 1027 1031 1032 1028
f 1028 1032 1029 1025
f 1033 1034 1035 1036
f 1037 1040 1039 1038
f 1033 1037 1038 1034
f 1034 1038 1039 1035
f 1035 1039 1040 1036
f 1036 1040 1037 1033
f 1041 1042 1043 1044
f 1045 1048 1047 1046
f 1041 1045 1046 1042
f 1042 1046 1047 1043
f 1043 1047 1048 1044
f 1044 1048 1045 1041
f 1049 1050 1051 1052
f 1053 1056 1055 1054
f 1049 1053 1054 1050
f 1050 1054 1055 1051
f 1051 1055 1056 1052
f 1052 1056 1053 1049
f 1057 1058 1059 1060
f 1061 1064 1063 1062
f 1057 1061 1062 1058
f 1058 1062 1063 1059
f 1059 1063 1064 1060
f 1060 1064 1061 1057
f 1065 1066 1067 1068
f 1069 1072 1071 1070
f 1065 1069 1070 1066
f 1066 1070 1071 1067
f 1067 1071 1072 1068
f 1068 1072 1069 1065
f 1073 1074 1075 1076
f 1077 1080 1079 1078
f 1073 1077 1078 1074
f 1074 1078 1079 1075
f 1075 1079 1080 1076
f 1076 1080 1077 1073
f 1081 1082 1083 1084
f 1085 1088 1087 1086
f 1081 1085 1086 1082
f 1082 1086 1087 1083
f 1083 1087 1088 1084
f 1084 1088 1085 1081
f 1089 1090 1091 1092
f 1093 1096 1095 1094
f 1089 1093 1094 1090
f 1090 1094 1095 1091
f 1091 1095 1096 1092
f 1092 1096 1093 1089
f 1097 1098 1099 1100
f 1101 1104 1103 1102
f 1097 1101 1102 1098
f 1098 1102 1103 1099
f 1099 1103 1104 1100
f 1100 1104 1101 1097
f 1105 1106 1107 1108
f 1109 1112 1111 1110
f 1105 1109 1110 1106
f 1106 1110 1111 1107
f 1107 1111 1112 1108
f 1108 1112 1109 1105
f 1113 1114 1115 1116
f 1117 1120 1119 1118
f 1113 1117 1118 1114
f 1114 1118 1119 1115
f 1115 1119 1120 1116
f 1116 1120 1117 1113
f 1121 1122 1123 1124
f 1125 1128 1127 1126
f 1121 1125 1126 1122
f 1122 1126 1127 1123
f 1123 1127 1128 1124
f 1124 1128 1125 1121
f 1129 1130 1131 1132
f 1133 1136 1135 1134
f 1129 1133 1134 1130
f 1130 1134 1135 1131
f 1131 1135 1136 1132
f 1132 1136 1133 1129
f 1137 1138 1139 1140
f 1141 1144 1143 1142
f 1137 1141 1142 1138
f 1138 1142 1143 1139
f 1139 1143 1144 1140
f 1140 1144 1141 1137
f 1145 1146 1147 1148
f 1149 1152 1151 1150
f 1145 1149 1150 1146
f 1146 1150 1151 1147
f 1147 1151 1152 1148
f 1148 1152 1149 1145
f 1153 1154 1155 1156
f 1157 1160 1159 1158
f 1153 1157 1158 1154
f 1154 1158 1159 1155
f 1155 1159 1160 1156
f 1156 1160 1157 1153
f 1161 1162 1163 1164
f 1165 1168 1167 1166
f 1161 1165 1166 1162
f 1162 1166 1167 1163
f 1163 1167 1168 1164
f 1164 1168 1165 1161
f 1169 1170 1171 1172
f 1173 1176 1175 1174
f 1169 1173 1174 1170
f 1170 1174 1175 1171
f 1171 1175 1176 1172
f 1172 1176 1173 1169
f 1177 1178 1179 1180
f 1181 1184 1183 1182
f 1177 1181 1182 1178
f 1178 1182 1183 1179
f 1179 1183 1184 1180
f 1180 1184 1181 1177
f 1185 1186 1187 1188
f 1189 1192 1191 1190
f 1185 1189 1190 1186
f 1186 1190 1191 1187
f 1187 1191 1192 1188
f 1188 1192 1189 1185
f 1193 1194 1195 1196
f 1197 1200 1199 1198
f 1193 1197 1198 1194
f 1194 1198 1199 1195
f 1195 1199 1200 1196
f 1196 1200 1197 1193
f 1201 1202 1203 1204
f 1205 1208 1207 1206
f 1201 1205 1206 1202
f 1202 1206 1207 1203
f 1203 1207 1208 1204
f 1204 1208 1205 1201
f 1209 1210 1211 1212
f 1213 1216 1215 1214
f 1209 1213 1214 1210
f 1210 1214 1215 1211
f 1211 1215 1216 1212
f 1212 1216 1213 1209
f 1217 1218 1219 1220
f 1221 1224 1223 1222
f 1217 1221 1222 1218
f 1218 1222 1223 1219
f 1219 1223 1224 1220
f 1220 1224 1221 1217
f 1225 1226 1227 1228
f 1229 1232 1231 1230
f 1225 1229 1230 1226
f 1226 1230 1231 1227
f 1227 1231 1232 1228
f 1228 1232 1229 1225
f 1233 1234 1235 1236
f 1237 1240 1239 1238
f 1233 1237 1238 1234
f 1234 1238 1239 1235
f 1235 1239 1240 1236
f 1236 1240 1237 1233
f 1241 1242 1243 1244
f 1245 1248 1247 1246
f 1241 1245 1246 1242
f 1242 1246 1247 1243
f 1243 1247 1248 1244
f 1244 1248 1245 1241
f 1249 1250 1251 1252
f 1253 1256 1255 1254
f 1249 1253 1254 1250
f 1250 1254 1255 1251
f 1251 1255 1256 1252
f 1252 1256 1253 1249
f 1257 1258 1259 1260
f 1261 1264 1263 1262
f 1257 1261 1262 1258
f 1258 1262 1263 1259
f 1259 1263 1264 1260
f 1260 1264 1261 1257
f 1265 1266 1267 1268
f 1269 1272 1271 1270
f 1265 1269 1270 1266
f 1266 1270 1271 1267
f 1267 1271 1272 1268
f 1268 1272 1269 1265
f 1273 1274 1275 1276
f 1277 1280 1279 1278
f 1273 1277 1278 1274
f 1274 1278 1279 1275
f 1275 1279 1280 1276
f 1276 1280 1277 1273
f 1281 1282 1283 1284
f 1285 1288 1287 1286
f 1281 1285 1286 1282
f 1282 1286 1287 1283
f 1283 1287 1288 1284
f 1284 1288 1285 1281
f 1289 1290 1291 1292
f 1293 1296 1295 1294
f 1289 1293 1294 1290
f 1290 1294 1295 1291
f 1291 1295 1296 1292
f 1292 1296 1293 1289
f 1297 1298 1299 1300
f 1301 1304 1303 1302
f 1297 1301 1302 1298
f 1298 1302 1303 1299
f 1299 1303 1304 1300
f 1300 1304 1301 1297
f 1305 1306 1307 1308
f 1309 1312 1311 1310
f 1305 1309 1310 1306
f 1306 1310 1311 1307
f 1307 1311 1312 1308
f 1308 1312 1309 1305
f 1313 1314 1315 1316
f 1317 1320 1319 1318
f 1313 1317 1318 1314
f 1314 1318 1319 1315
f 1315 1319 1320 1316
f 1316 1320 1317 1313
