# exported by https://3dviewer.net
mtllib model.mtl
g Mesh
v -767.4554860167815 4352.456345212753 1524
v 134.68193656036033 4110.729351371313 2307.686653729826
v -2007.580134975675 3106.985844470252 2307.686653729834
v -2909.7175575528104 3348.71283831169 1524
v -767.4554860167816 4352.456345212753 -1524
v -767.4554860167815 4352.456345212753 1524
v -2909.7175575528104 3348.71283831169 1524
v -2909.7175575528104 3348.71283831169 -1524
v 134.68193656036033 4110.729351371313 -2307.686653729826
v -767.4554860167816 4352.456345212753 -1524
v -2909.7175575528104 3348.71283831169 -1524
v -2007.580134975675 3106.985844470252 -2307.686653729834
vn -0.336540898640896 0.7182699886304484 0.6089568514885054
vn -0.336540898640896 0.7182699886304484 0.6089568514885054
vn -0.336540898640896 0.7182699886304484 0.6089568514885054
vn -0.336540898640896 0.7182699886304484 0.6089568514885054
vn -0.4242807386204459 0.9055307034196515 1.5825176325037318e-17
vn -0.4242807386204459 0.9055307034196515 7.912588162518659e-18
vn -0.4242807386204459 0.9055307034196515 0
vn -0.4242807386204459 0.9055307034196515 7.912588162518659e-18
vn -0.336540898640896 0.7182699886304484 -0.6089568514885054
vn -0.336540898640896 0.7182699886304484 -0.6089568514885054
vn -0.336540898640896 0.7182699886304484 -0.6089568514885054
vn -0.336540898640896 0.7182699886304484 -0.6089568514885054
usemtl Material
f 1//1 4//4 3//3
f 2//2 1//1 3//3
f 6//6 8//8 7//7
f 6//6 5//5 8//8
f 12//12 11//11 10//10
f 9//9 12//12 10//10
g Mesh
v -2007.580134975675 3106.985844470252 2307.686653729834
v -2909.7175575528104 3348.71283831169 1524
v -4310.910068401402 0 1524
v -3684.4227852900062 0 2569.926538577018
v -2794.4239587155134 2311.8266791531164 2047.4356515589575
v -2635.097019481932 2375.5631946979584 2160.934968706222
v -2572.4524875834554 2656.3012575700536 2075.595534136243
v -2701.5700255396555 2098.182451184772 2249.916623899079
v -2880.50231735298 1939.7474748962622 2163.649711400848
v -3106.6970469172657 2178.758115798585 1814.3666495596322
v -3228.157636554972 1613.9246706954852 1981.403298076713
v -3022.381435840001 1392.819733040677 2350.1115365732767
v -3364.9321228296644 1062.5205030280215 2163.0088290853046
v -3445.844645765378 1845.4746019113438 1624.026412629102
v -3562.200603190756 1276.1647309963662 1786.2067669823468
v -3648.278961828222 904.0855267395117 1902.420826824238
v -3724.117454296319 1102.808335334928 1683.7522072713266
v -3786.761986194795 822.0702724628326 1769.091641841306
v -3853.2349922525177 544.6895289496465 1858.0732970341633
v -2347.0779283098454 2997.791552112405 2100.5178872709703
v -2293.844785438812 2885.000870379062 2195.2833145559152
v -2325.6456106579553 2745.0515038628773 2238.408309418765
v -2422.5809023056654 2884.2930410287972 2092.5701617196787
v -2678.0680012901353 2881.1365500680945 1885.255297205713
v -2408.4463021552397 2715.9343827873404 2184.643248299991
v -2451.4854814739733 2529.894780658913 2242.750278220936
v -2519.2346455847783 2253.6331435986963 2332.946006954752
v -2790.4896912799204 3111.9404103153065 1701.3901191602988
v -3000.5503539165447 2757.0208383373197 1661.898883534061
v -2580.391226474354 2202.1478332245642 2305.629271429812
v -2894.0840681744767 2531.4394748706327 1851.4297381039516
v -3174.378013517542 2594.1094362369313 1570.7756768719928
v -3349.9990224234507 693.425582645753 2456.7815081325894
v -3517.0205057413423 524.5456127961932 2359.1832425854063
v -3579.2466456432294 711.3312858932666 2127.5645052622644
v -3790.158080315242 357.1577848839263 2088.882651996666
v -3830.1714171769436 985.579469408088 1613.650539995892
v -3733.8873446610714 175.59460856737746 2326.1670658442845
v -3882.6312172603302 926.4676557989042 1578.0601181177483
v -3943.999591105724 644.6104864738394 1662.185479146769
v -3987.038770424457 458.57088434541174 1720.2925090677145
v -4021.3422355081066 554.7614870263731 1607.518324258541
v -3987.9817413456312 303.4342616038548 1826.7096497060259
v -4053.1430607272505 414.81212051018883 1650.6433191213905
v -4054.787934535262 182.30924728519517 1810.4882378015309
v -4085.901004486206 275.70208383373165 1694.6788691399593
v -2909.7175575528104 3348.71283831169 -1524
v -4310.910068401402 0 -1524
v -4310.910068401402 0 1524
v -2909.7175575528104 3348.71283831169 1524
v -2909.7175575528104 3348.71283831169 -1524
v -2007.580134975675 3106.985844470252 -2307.686653729834
v -3684.4227852900062 0 -2569.926538577018
v -4310.910068401402 0 -1524
v -3445.8446457653786 1845.4746019113438 -1624.0264126291017
v -3106.6970469172666 2178.758115798585 -1814.3666495596315
v -3228.157636554973 1613.9246706954855 -1981.403298076713
v -2635.0970194819324 2375.5631946979584 -2160.9349687062227
v -2794.4239587155143 2311.8266791531164 -2047.4356515589577
v -2572.4524875834563 2656.3012575700536 -2075.5955341362433
v -2701.570025539655 2098.182451184772 -2249.9166238990797
v -2880.50231735298 1939.7474748962622 -2163.6497114008484
v -3562.2006031907563 1276.1647309963662 -1786.2067669823464
v -3364.9321228296653 1062.5205030280215 -2163.0088290853046
v -3724.11745429632 1102.808335334928 -1683.7522072713261
v -3648.2789618282222 904.0855267395117 -1902.420826824237
v -3786.7619861947956 822.0702724628329 -1769.0916418413055
v -3022.3814358400014 1392.819733040677 -2350.1115365732767
v -3853.2349922525186 544.6895289496465 -1858.0732970341624
v -2790.4896912799213 3111.9404103153065 -1701.3901191602986
v -3000.5503539165456 2757.0208383373197 -1661.8988835340604
v -2678.0680012901366 2881.1365500680945 -1885.2552972057128
v -3174.378013517542 2594.1094362369313 -1570.775676871993
v -2347.0779283098454 2997.791552112405 -2100.5178872709707
v -2422.580902305666 2884.2930410287972 -2092.570161719679
v -2894.0840681744776 2531.4394748706327 -1851.4297381039512
v -2293.8447854388114 2885.000870379062 -2195.283314555916
v -2408.44630215524 2715.9343827873404 -2184.643248299991
v -2325.645610657956 2745.0515038628773 -2238.4083094187654
v -2358.403554416912 2605.9414671864206 -2282.443859437334
v -2451.485481473973 2529.894780658913 -2242.7502782209367
v -2519.2346455847787 2253.6331435986963 -2332.946006954752
v -2580.3912264743544 2202.1478332245642 -2305.629271429812
v -3830.1714171769436 985.5794694080884 -1613.650539995892
v -3882.6312172603302 926.4676557989045 -1578.0601181177483
v -3943.9995911057244 644.6104864738394 -1662.1854791467686
v -4021.3422355081066 554.7614870263731 -1607.5183242585408
v -4053.143060727251 414.81212051018906 -1650.64331912139
v -3987.0387704244577 458.5708843454122 -1720.2925090677138
v -4085.901004486206 275.70208383373233 -1694.6788691399588
v -3579.2466456432303 711.3312858932669 -2127.5645052622635
v -3790.1580803152433 357.1577848839263 -2088.882651996665
v -3517.020505741343 524.5456127961932 -2359.183242585406
v -3987.9817413456312 303.4342616038548 -1826.7096497060252
v -4054.7879345352626 182.30924728519517 -1810.48823780153
v -3349.999022423451 693.425582645753 -2456.7815081325894
v -3733.8873446610723 175.59460856737746 -2326.1670658442836
vn -0.5876378628449366 0.3620680333626932 0.7235941413305579
vn -0.6388133873996311 0.2942748418334167 0.7108584764514849
vn -0.783785554510593 0.3430218876110572 0.5177028000313207
vn -0.7392569789353907 0.41408735564123117 0.5310657030851944
vn -0.6410481922735402 0.34870338401626894 0.6837127797243728
vn -0.6255092390232222 0.36429884177832605 0.68994532085924
vn -0.6154944813084549 0.33928832256295655 0.7113718982721002
vn -0.6435415778153564 0.3773989995023164 0.665901068325898
vn -0.6660504638884326 0.36644773333346997 0.649686723189543
vn -0.6647808834215336 0.32588674022444014 0.6722084569411289
vn -0.6934287008918784 0.3560674219738739 0.6263965419670523
vn -0.685402178768045 0.39466766896029726 0.6119324181782347
vn -0.7196832365137232 0.385184114837161 0.5776584083679948
vn -0.7001296688900285 0.31749295331460325 0.6395441121107366
vn -0.7196754950354757 0.3452577954767104 0.6023821349509006
vn -0.7415588738424849 0.361262631967393 0.5653138485562311
vn -0.7396353930399193 0.3334243230477196 0.584609019912329
vn -0.7548128372225469 0.3448384704834907 0.5579820875607528
vn -0.7620229098464337 0.36802360185602895 0.5328036348844563
vn -0.5836505412215987 0.3142368261171305 0.7487371119715966
vn -0.5755840394675584 0.3536318451329188 0.73732457684394
vn -0.5837083802400442 0.3657380855735844 0.7249277064635573
vn -0.5946280921857832 0.3418720344786856 0.7276956396907296
vn -0.6094197393300281 0.31128861350977405 0.7291824054474183
vn -0.5974854626773395 0.3537991524431523 0.7196091172433495
vn -0.6128145569784784 0.3653310903007351 0.7007078658149539
vn -0.6520288511726878 0.3994845404041143 0.6444148347272417
vn -0.6038550552840206 0.27800779698311956 0.747041322166669
vn -0.6200045263061384 0.28396209689006896 0.7314095397858137
vn -0.6312603667904925 0.3790237137871436 0.6766471559879156
vn -0.6323943131091492 0.3164778050241875 0.7070496670491259
vn -0.649519733314727 0.28763129943165283 0.7038411408990133
vn -0.7293800138565237 0.4215939058235167 0.5387609617995063
vn -0.7531086291694113 0.4219613981158091 0.5047533765817932
vn -0.7468680209769768 0.3918563475087962 0.5372492551497857
vn -0.7646033333813831 0.39427600073395985 0.5098315190602793
vn -0.750037336525707 0.33101789572856805 0.5726003375172373
vn -0.7646398549156364 0.4255191422116472 0.4840034626798227
vn -0.7260025689572012 0.3097799442674992 0.6139679600737887
vn -0.7660913605045567 0.3424550058379399 0.5439012744394094
vn -0.7762026617220182 0.35093229242365453 0.5237899904254879
vn -0.7846895036177461 0.3365092650987924 0.5205995557189861
vn -0.7780786476648139 0.3630560785831369 0.5126245232642792
vn -0.7911119031061642 0.34151557804714117 0.5074535118755905
vn -0.7839533777127113 0.3878846514424788 0.48472940776084283
vn -0.7923837186763838 0.34926714975940076 0.5001404807406911
vn -0.922499290216081 0.3859987817996667 0
vn -0.922499290216081 0.3859987817996667 0
vn -0.922499290216081 0.3859987817996667 0
vn -0.922499290216081 0.3859987817996667 0
vn -0.6388134523592431 0.29427484664516357 -0.7108584160835618
vn -0.5879370455288946 0.36196169239133386 -0.7234042878888374
vn -0.739256969812394 0.4140873803333984 -0.5310656965314372
vn -0.7837856338827501 0.3430218664599402 -0.5177026938787884
vn -0.7001296688900285 0.31749295331460325 -0.6395441121107366
vn -0.6647808834215336 0.32588674022444014 -0.6722084569411289
vn -0.6934287031960981 0.35606742396102004 -0.6263965382866838
vn -0.6255092390232222 0.36429884177832605 -0.68994532085924
vn -0.6410481922735402 0.34870338401626894 -0.6837127797243728
vn -0.6154944599139966 0.3392883077149197 -0.7113719238648117
vn -0.6435415778153564 0.3773989995023164 -0.665901068325898
vn -0.6660504638884326 0.36644773333346997 -0.649686723189543
vn -0.7196754950354757 0.3452577954767104 -0.6023821349509006
vn -0.7196832365137232 0.385184114837161 -0.5776584083679948
vn -0.7396353930399193 0.3334243230477196 -0.584609019912329
vn -0.7415588738424849 0.361262631967393 -0.5653138485562311
vn -0.7548128372225469 0.3448384704834907 -0.5579820875607528
vn -0.685402178768045 0.39466766896029726 -0.6119324181782347
vn -0.7620229098464337 0.36802360185602895 -0.5328036348844563
vn -0.6038550552840206 0.27800779698311956 -0.747041322166669
vn -0.6200045210592074 0.2839621242892961 -0.7314095335960922
vn -0.6094197336763654 0.31128864042423465 -0.7291823986827023
vn -0.649519693288107 0.2876313379038479 -0.7038411621144118
vn -0.5836505805220418 0.31423681518537055 -0.7487370859243174
vn -0.5946280921857832 0.3418720344786856 -0.7276956396907296
vn -0.632394277341745 0.31647781695338756 -0.7070496937004005
vn -0.5755839971799098 0.3536318327879977 -0.7373246157761175
vn -0.5979047808573749 0.35497652266584756 -0.718680416724957
vn -0.5777790294523677 0.3621279812983196 -0.7314606744630117
vn -0.5868769432622807 0.3686558695047875 -0.7208802281563775
vn -0.6114074208917006 0.3653805327477373 -0.7019102734449316
vn -0.6577376496738269 0.4021310436131868 -0.6369237065490021
vn -0.6312603667904925 0.3790237137871436 -0.6766471559879156
vn -0.750037336525707 0.33101789572856805 -0.5726003375172373
vn -0.7260025689572012 0.3097799442674992 -0.6139679600737887
vn -0.7660913605045567 0.3424550058379399 -0.5439012744394094
vn -0.7846895036177461 0.3365092650987924 -0.5205995557189861
vn -0.7911119031061642 0.34151557804714117 -0.5074535118755905
vn -0.7762026542645908 0.3509322563955089 -0.5237900256149987
vn -0.7923836950548738 0.34926713934750403 -0.5001405254357976
vn -0.7468680296990733 0.3918563222826594 -0.5372492614239062
vn -0.7646033333813831 0.39427600073395985 -0.5098315190602793
vn -0.7531086518271689 0.42196141081078925 -0.5047533321629808
vn -0.7780786476648139 0.3630560785831369 -0.5126245232642792
vn -0.7839533434150225 0.38788466396385995 -0.4847294532108101
vn -0.7293800417517816 0.4215938874949596 -0.5387609383771775
vn -0.7646398341893943 0.425519160479897 -0.4840034793628031
f 17//17 18//18 19//19
f 17//17 20//20 18//18
f 21//21 17//17 22//22
f 21//21 22//22 23//23
f 21//21 20//20 17//17
f 24//24 23//23 25//25
f 24//24 21//21 23//23
f 24//24 20//20 21//21
f 26//26 23//23 22//22
f 27//27 25//25 23//23
f 27//27 23//23 26//26
f 28//28 25//25 27//27
f 29//29 27//27 26//26
f 29//29 28//28 27//27
f 30//30 28//28 29//29
f 31//31 28//28 30//30
f 32//32 13//13 14//14
f 32//32 33//33 13//13
f 34//34 13//13 33//33
f 35//35 36//36 19//19
f 35//35 33//33 32//32
f 35//35 32//32 36//36
f 37//37 35//35 19//19
f 37//37 34//34 33//33
f 37//37 33//33 35//35
f 38//38 19//19 18//18
f 38//38 37//37 19//19
f 38//38 34//34 37//37
f 39//39 16//16 13//13
f 39//39 13//13 34//34
f 39//39 38//38 18//18
f 39//39 34//34 38//38
f 40//40 14//14 41//41
f 40//40 32//32 14//14
f 40//40 41//41 36//36
f 40//40 36//36 32//32
f 42//42 18//18 20//20
f 42//42 20//20 24//24
f 42//42 39//39 18//18
f 42//42 24//24 39//39
f 43//43 22//22 17//17
f 43//43 19//19 36//36
f 43//43 17//17 19//19
f 43//43 36//36 41//41
f 44//44 41//41 14//14
f 44//44 22//22 43//43
f 44//44 26//26 22//22
f 44//44 43//43 41//41
f 45//45 46//46 16//16
f 45//45 16//16 39//39
f 45//45 24//24 25//25
f 45//45 39//39 24//24
f 47//47 46//46 45//45
f 47//47 25//25 28//28
f 47//47 48//48 46//46
f 47//47 28//28 31//31
f 47//47 31//31 48//48
f 47//47 45//45 25//25
f 49//49 29//29 26//26
f 49//49 30//30 29//29
f 50//50 16//16 46//46
f 50//50 46//46 48//48
f 51//51 49//49 26//26
f 51//51 14//14 15//15
f 51//51 30//30 49//49
f 51//51 44//44 14//14
f 51//51 26//26 44//44
f 52//52 30//30 51//51
f 52//52 31//31 30//30
f 53//53 31//31 52//52
f 54//54 52//52 51//51
f 54//54 51//51 15//15
f 54//54 53//53 52//52
f 55//55 31//31 53//53
f 55//55 48//48 31//31
f 56//56 54//54 15//15
f 56//56 53//53 54//54
f 57//57 15//15 16//16
f 57//57 16//16 50//50
f 57//57 50//50 48//48
f 57//57 48//48 55//55
f 58//58 55//55 53//53
f 58//58 15//15 57//57
f 58//58 56//56 15//15
f 58//58 53//53 56//56
f 58//58 57//57 55//55
f 60//60 62//62 59//59
f 61//61 62//62 60//60
f 67//67 68//68 69//69
f 70//70 71//71 72//72
f 73//73 71//71 70//70
f 74//74 68//68 71//71
f 74//74 69//69 68//68
f 74//74 71//71 73//73
f 75//75 69//69 76//76
f 75//75 67//67 69//69
f 77//77 67//67 75//75
f 78//78 75//75 76//76
f 78//78 77//77 75//75
f 78//78 79//79 77//77
f 80//80 76//76 69//69
f 80//80 69//69 74//74
f 80//80 74//74 73//73
f 81//81 79//79 78//78
f 82//82 83//83 63//63
f 82//82 84//84 83//83
f 85//85 63//63 83//83
f 85//85 68//68 67//67
f 86//86 63//63 64//64
f 86//86 82//82 63//63
f 86//86 84//84 82//82
f 87//87 72//72 84//84
f 87//87 84//84 86//86
f 88//88 71//71 68//68
f 88//88 83//83 84//84
f 88//88 84//84 72//72
f 88//88 72//72 71//71
f 88//88 85//85 83//83
f 88//88 68//68 85//85
f 89//89 86//86 64//64
f 89//89 87//87 86//86
f 90//90 72//72 87//87
f 90//90 87//87 89//89
f 91//91 89//89 64//64
f 91//91 90//90 89//89
f 92//92 91//91 64//64
f 92//92 90//90 91//91
f 93//93 70//70 72//72
f 93//93 72//72 90//90
f 93//93 90//90 92//92
f 94//94 64//64 65//65
f 94//94 92//92 64//64
f 94//94 70//70 93//93
f 94//94 93//93 92//92
f 95//95 73//73 70//70
f 95//95 80//80 73//73
f 95//95 94//94 80//80
f 95//95 70//70 94//94
f 96//96 67//67 77//77
f 96//96 77//77 79//79
f 97//97 96//96 79//79
f 97//97 66//66 63//63
f 97//97 63//63 85//85
f 97//97 67//67 96//96
f 97//97 85//85 67//67
f 98//98 97//97 79//79
f 98//98 79//79 81//81
f 99//99 97//97 98//98
f 99//99 66//66 97//97
f 100//100 66//66 99//99
f 101//101 98//98 81//81
f 101//101 99//99 98//98
f 101//101 100//100 99//99
f 102//102 66//66 100//100
f 102//102 100//100 101//101
f 103//103 78//78 76//76
f 103//103 81//81 78//78
f 103//103 104//104 81//81
f 103//103 105//105 104//104
f 106//106 101//101 81//81
f 106//106 102//102 101//101
f 106//106 81//81 104//104
f 107//107 65//65 66//66
f 107//107 66//66 102//102
f 107//107 106//106 104//104
f 107//107 102//102 106//106
f 108//108 76//76 80//80
f 108//108 65//65 105//105
f 108//108 105//105 103//103
f 108//108 103//103 76//76
f 108//108 94//94 65//65
f 108//108 80//80 94//94
f 109//109 65//65 107//107
f 109//109 105//105 65//65
f 109//109 107//107 104//104
f 109//109 104//104 105//105
